<svg width="34" height="22" viewBox="0 0 34 22" fill="none" xmlns="http://www.w3.org/2000/svg">
<path d="M26.4901 9.52439C25.4285 8.47351 25.1379 5.34346 26.4901 3.95733L26.8925 3.48776L27.2947 3.89024C28.5911 4.91866 29.3287 6.08127 29.5075 7.37806C31.3108 6.82957 32.6354 7.18841 34 8.04878C33.1153 9.89791 31.7519 11.0575 28.7028 10.9329C25.9423 17.8112 20.0084 21.933 11.2022 22C6.55325 22 3.22297 20.3232 1.21132 16.8354C0.0935675 14.7807 -0.143038 13.3004 0.071587 10.4634H3.02189V6.90855H6.50842V3.42066H13.4819V0H17.6391V6.90855H21.1259V10.4634C23.5158 10.5328 25.0005 10.385 26.49 9.52439H26.4901ZM6.17327 7.71338H6.37442V10.2622H6.1732V7.71338H6.17327ZM5.70391 7.71338H5.97213V10.2622H5.70384V7.71338H5.70391ZM5.23455 7.71338H5.50277V10.2622H5.23448V7.71338H5.23455ZM4.76519 7.71338H5.03334V10.2622H4.76526V7.71338H4.76519ZM4.36283 7.71338H4.56405V10.2622H4.36283V7.71338ZM3.89347 7.71338H4.09468V10.2622H3.89347V7.71338ZM3.62526 7.51218V10.5305H6.64263V7.51218H3.62526V7.51218ZM9.66 4.29265H9.86115V6.77437H9.65994V4.29265H9.66ZM9.19064 4.29265H9.39179V6.77437H9.19058V4.29265H9.19064ZM8.72122 4.29265H8.9895V6.77437H8.72122V4.29265ZM8.25186 4.29265H8.52014V6.77437H8.25186V4.29265ZM7.7825 4.29265H8.05078V6.77437H7.7825V4.29265ZM7.38021 4.29265H7.58142V6.77437H7.38021V4.29265ZM7.11199 4.02436V7.04267H10.1294V4.02436H7.11199ZM9.66 7.71338H9.86115V10.2622H9.65994V7.71338H9.66ZM9.19064 7.71338H9.39179V10.2622H9.19058V7.71338H9.19064ZM8.72122 7.71338H8.9895V10.2622H8.72122V7.71338ZM8.25186 7.71338H8.52014V10.2622H8.25186V7.71338ZM7.7825 7.71338H8.05078V10.2622H7.7825V7.71338ZM7.38021 7.71338H7.58142V10.2622H7.38021V7.71338ZM7.11199 7.51218V10.5305H10.1294V7.51218H7.11199V7.51218ZM13.0797 7.71345H13.3479V10.2622H13.0796V7.71338L13.0797 7.71345ZM12.6773 7.71345H12.8785V10.2622H12.6773V7.71338V7.71345ZM12.2079 7.71345H12.4092V10.2622H12.2079V7.71338V7.71345ZM11.7386 7.71345H12.0069V10.2622H11.7386V7.71338V7.71345ZM11.2692 7.71345H11.5375V10.2622H11.2692V7.71338V7.71345ZM10.7999 7.71345H11.0681V10.2622H10.7999V7.71338V7.71345ZM10.5987 7.51218V10.5305H13.6161V7.51218H10.5987H10.5987ZM13.0796 4.29265H13.3479V6.77437H13.0796V4.29265ZM12.6773 4.29265H12.8785V6.77437H12.6773V4.29265ZM12.2079 4.29265H12.4092V6.77437H12.2079V4.29265ZM11.7386 4.29265H12.0069V6.77437H11.7386V4.29265ZM11.2692 4.29265H11.5375V6.77437H11.2692V4.29265ZM10.7999 4.29265H11.0681V6.77437H10.7999V4.29265ZM10.5987 4.02436V7.04267H13.6161V4.02436H10.5987H10.5987ZM16.5664 7.71338H16.8346V10.2622H16.5663V7.71338H16.5664ZM16.097 7.71338H16.3652V10.2622H16.097V7.71338ZM15.6947 7.71338H15.8959V10.2622H15.6947V7.71338ZM15.2253 7.71338H15.4265V10.2622H15.2253V7.71338ZM14.756 7.71338H15.0242V10.2622H14.756V7.71338ZM14.2866 7.71338H14.5548V10.2622H14.2865V7.71338H14.2866ZM14.0854 7.51218V10.5305H17.0358V7.51218H14.0854V7.51218ZM16.5663 4.29265H16.8346V6.77437H16.5663V4.29265ZM16.097 4.29265H16.3652V6.77437H16.097V4.29265ZM15.6947 4.29265H15.8959V6.77437H15.6947V4.29265ZM15.2253 4.29265H15.4265V6.77437H15.2253V4.29265ZM14.756 4.29265H15.0242V6.77437H14.756V4.29265ZM14.2866 4.29265H14.5548V6.77437H14.2865V4.29265H14.2866ZM14.0854 4.02436V7.04267H17.0358V4.02436H14.0854V4.02436ZM16.5663 0.804831H16.8346V3.28655H16.5663V0.804831ZM16.097 0.804831H16.3652V3.28655H16.097V0.804831ZM15.6947 0.804831H15.8959V3.28655H15.6947V0.804831ZM15.2253 0.804831H15.4265V3.28655H15.2253V0.804831ZM14.756 0.804831H15.0242V3.28655H14.756V0.804831ZM14.2866 0.804831H14.5548V3.28655H14.2865V0.804831H14.2866ZM14.0854 0.536532V3.55485H17.0358V0.536532H14.0854V0.536532ZM20.0531 7.71338H20.2543V10.2622H20.0531V7.71338H20.0531ZM19.5837 7.71338H19.852V10.2622H19.5837V7.71338ZM19.1143 7.71338H19.3826V10.2622H19.1143V7.71338ZM18.7121 7.71338H18.9133V10.2622H18.7121V7.71338ZM18.2427 7.71338H18.4439V10.2622H18.2427V7.71338ZM17.7733 7.71338H18.0416V10.2622H17.7733V7.71338H17.7733ZM17.5051 7.51218V10.5305H20.5225V7.51218H17.5051H17.5051ZM9.92829 15.3597C9.70476 15.3597 9.51477 15.4492 9.35832 15.6281C9.20187 15.8069 9.12364 16.0081 9.12364 16.2317C9.12364 16.4553 9.20187 16.6453 9.35832 16.8018C9.51477 16.9584 9.70476 17.0366 9.92829 17.0366C10.1518 17.0366 10.3417 16.9584 10.4982 16.8018C10.6546 16.6452 10.7329 16.4553 10.7329 16.2317C10.7329 16.0528 10.6993 15.9076 10.6323 15.7958C10.5653 15.684 10.4646 15.5833 10.3306 15.4939C10.1965 15.4045 10.0624 15.3597 9.92829 15.3597V15.3597ZM9.92829 15.6281C10.0177 15.6281 10.0847 15.6504 10.1294 15.6951C10.04 15.7398 9.99529 15.8069 9.99529 15.8964C9.99529 16.0305 10.0847 16.0976 10.2636 16.0976C10.353 16.0976 10.42 16.0528 10.4646 15.9634C10.5094 16.0528 10.5317 16.1423 10.5317 16.2317C10.5317 16.6341 10.3305 16.8354 9.92829 16.8354C9.52606 16.8354 9.32478 16.6341 9.32478 16.2317C9.32478 15.8293 9.526 15.628 9.92829 15.628V15.6281ZM12.1409 21.3964C10.3082 20.5021 9.03426 19.2501 8.31899 17.6403C7.55911 17.8638 6.6427 17.998 5.56984 18.0427H2.68654C4.92164 20.2338 7.76018 21.3517 11.2022 21.3964H12.1409V21.3964Z" fill="#00F0FF"/>
</svg>
