<svg width="73" height="110" viewBox="0 0 73 110" fill="none" xmlns="http://www.w3.org/2000/svg">
<path d="M54.75 73C64.8292 73 73 64.8292 73 54.75C73 44.6708 64.8292 36.5 54.75 36.5C44.6708 36.5 36.5 44.6708 36.5 54.75C36.5 64.8292 44.6708 73 54.75 73Z" fill="#19BCFE"/>
<path fill-rule="evenodd" clip-rule="evenodd" d="M18.25 109.5C23.0902 109.5 27.7322 107.577 31.1547 104.155C34.5772 100.732 36.5 96.0902 36.5 91.25V73H18.25C13.4098 73 8.76784 74.9228 5.3453 78.3453C1.92276 81.7678 0 86.4098 0 91.25C0 96.0902 1.92276 100.732 5.3453 104.155C8.76784 107.577 13.4098 109.5 18.25 109.5V109.5Z" fill="#09CF83"/>
<path fill-rule="evenodd" clip-rule="evenodd" d="M18.25 73H36.5V36.5H18.25C13.4098 36.5 8.76784 38.4228 5.3453 41.8453C1.92276 45.2678 0 49.9098 0 54.75C0 59.5902 1.92276 64.2322 5.3453 67.6547C8.76784 71.0772 13.4098 73 18.25 73V73Z" fill="#A259FF"/>
<path fill-rule="evenodd" clip-rule="evenodd" d="M18.25 36.5H36.5V0H18.25C13.4098 0 8.76784 1.92276 5.3453 5.3453C1.92276 8.76784 0 13.4098 0 18.25C0 23.0902 1.92276 27.7322 5.3453 31.1547C8.76784 34.5772 13.4098 36.5 18.25 36.5V36.5Z" fill="#F24E1E"/>
<path fill-rule="evenodd" clip-rule="evenodd" d="M54.75 36.5H36.5V0H54.75C59.5902 0 64.2322 1.92276 67.6547 5.3453C71.0772 8.76784 73 13.4098 73 18.25C73 23.0902 71.0772 27.7322 67.6547 31.1547C64.2322 34.5772 59.5902 36.5 54.75 36.5Z" fill="#FF7262"/>
</svg>
