<svg width="20" height="20" viewBox="0 0 20 20" fill="none" xmlns="http://www.w3.org/2000/svg">
<path d="M18 14.824V12.5C18 11.5717 17.6312 10.6815 16.9748 10.0251C16.3185 9.36872 15.4282 8.99998 14.5 8.99998H12.5C12.1021 8.99998 11.7206 8.84194 11.4393 8.56064C11.158 8.27933 11 7.8978 11 7.49998V5.17598C11.4172 4.98542 11.7709 4.67905 12.0191 4.29331C12.2673 3.90756 12.3995 3.45866 12.4 2.99998C12.4 2.36346 12.1471 1.75301 11.697 1.30292C11.2469 0.852832 10.6365 0.599976 9.99997 0.599976C9.36345 0.599976 8.753 0.852832 8.30292 1.30292C7.85283 1.75301 7.59997 2.36346 7.59997 2.99998C7.59997 3.96698 8.17597 4.79598 8.99997 5.17598V7.49998C8.99997 7.8978 8.84194 8.27933 8.56063 8.56064C8.27933 8.84194 7.8978 8.99998 7.49997 8.99998H5.49997C4.57171 8.99998 3.68148 9.36872 3.0251 10.0251C2.36872 10.6815 1.99997 11.5717 1.99997 12.5V14.824C1.50174 15.0512 1.09637 15.4422 0.85136 15.9319C0.606348 16.4217 0.53648 16.9805 0.653388 17.5155C0.770296 18.0505 1.06693 18.5293 1.49389 18.8721C1.92085 19.215 2.45238 19.4013 2.99997 19.4C3.54701 19.4003 4.07768 19.2134 4.50387 18.8705C4.93007 18.5275 5.22614 18.0491 5.34293 17.5147C5.45971 16.9803 5.39019 16.422 5.1459 15.9325C4.90161 15.4431 4.49725 15.0519 3.99997 14.824V12.5C3.99997 12.1022 4.15801 11.7206 4.43931 11.4393C4.72062 11.158 5.10215 11 5.49997 11H7.49997C8.03897 11 8.54397 10.868 8.99997 10.65V14.824C8.50174 15.0512 8.09637 15.4422 7.85136 15.9319C7.60635 16.4217 7.53648 16.9805 7.65339 17.5155C7.7703 18.0505 8.06693 18.5293 8.49389 18.8721C8.92085 19.215 9.45238 19.4013 9.99997 19.4C10.547 19.4003 11.0777 19.2134 11.5039 18.8705C11.9301 18.5275 12.2261 18.0491 12.3429 17.5147C12.4597 16.9803 12.3902 16.422 12.1459 15.9325C11.9016 15.4431 11.4973 15.0519 11 14.824V10.65C11.456 10.868 11.961 11 12.5 11H14.5C14.8978 11 15.2793 11.158 15.5606 11.4393C15.8419 11.7206 16 12.1022 16 12.5V14.824C15.5827 15.0145 15.229 15.3209 14.9808 15.7066C14.7326 16.0924 14.6005 16.5413 14.6 17C14.6 17.6365 14.8528 18.2469 15.3029 18.697C15.753 19.1471 16.3635 19.4 17 19.4C17.6365 19.4 18.2469 19.1471 18.697 18.697C19.1471 18.2469 19.4 17.6365 19.4 17C19.4 16.033 18.825 15.204 18 14.824ZM9.99997 1.61498C10.367 1.61498 10.7191 1.76079 10.9786 2.02034C11.2382 2.27989 11.384 2.63192 11.384 2.99898C11.384 3.36604 11.2382 3.71806 10.9786 3.97761C10.7191 4.23716 10.367 4.38298 9.99997 4.38298C9.63291 4.38298 9.28089 4.23716 9.02134 3.97761C8.76179 3.71806 8.61597 3.36604 8.61597 2.99898C8.61597 2.63192 8.76179 2.27989 9.02134 2.02034C9.28089 1.76079 9.63291 1.61498 9.99997 1.61498V1.61498ZM2.99997 18.385C2.81809 18.385 2.63799 18.3492 2.46996 18.2795C2.30192 18.2099 2.14924 18.1079 2.02063 17.9793C1.89202 17.8507 1.79 17.698 1.7204 17.53C1.6508 17.362 1.61497 17.1819 1.61497 17C1.61497 16.8181 1.6508 16.638 1.7204 16.47C1.79 16.3019 1.89202 16.1492 2.02063 16.0206C2.14924 15.892 2.30192 15.79 2.46996 15.7204C2.63799 15.6508 2.81809 15.615 2.99997 15.615C3.3673 15.615 3.71958 15.7609 3.97931 16.0206C4.23905 16.2804 4.38497 16.6327 4.38497 17C4.38497 17.3673 4.23905 17.7196 3.97931 17.9793C3.71958 18.2391 3.3673 18.385 2.99997 18.385V18.385ZM9.99997 18.385C9.81809 18.385 9.63799 18.3492 9.46995 18.2795C9.30192 18.2099 9.14924 18.1079 9.02063 17.9793C8.89202 17.8507 8.79 17.698 8.7204 17.53C8.6508 17.362 8.61497 17.1819 8.61497 17C8.61497 16.8181 8.6508 16.638 8.7204 16.47C8.79 16.3019 8.89202 16.1492 9.02063 16.0206C9.14924 15.892 9.30192 15.79 9.46995 15.7204C9.63799 15.6508 9.81809 15.615 9.99997 15.615C10.3673 15.615 10.7196 15.7609 10.9793 16.0206C11.2391 16.2804 11.385 16.6327 11.385 17C11.385 17.3673 11.2391 17.7196 10.9793 17.9793C10.7196 18.2391 10.3673 18.385 9.99997 18.385V18.385ZM17 18.385C16.8181 18.385 16.638 18.3492 16.47 18.2795C16.3019 18.2099 16.1492 18.1079 16.0206 17.9793C15.892 17.8507 15.79 17.698 15.7204 17.53C15.6508 17.362 15.615 17.1819 15.615 17C15.615 16.8181 15.6508 16.638 15.7204 16.47C15.79 16.3019 15.892 16.1492 16.0206 16.0206C16.1492 15.892 16.3019 15.79 16.47 15.7204C16.638 15.6508 16.8181 15.615 17 15.615C17.3673 15.615 17.7196 15.7609 17.9793 16.0206C18.2391 16.2804 18.385 16.6327 18.385 17C18.385 17.3673 18.2391 17.7196 17.9793 17.9793C17.7196 18.2391 17.3673 18.385 17 18.385V18.385Z" fill="#E39D3A"/>
</svg>
