<svg width="20" height="17" viewBox="0 0 20 17" fill="none" xmlns="http://www.w3.org/2000/svg">
<g clip-path="url(#clip0)">
<path d="M17.5748 -0.0158716C17.0341 -0.0238646 15.7782 0.159568 13.6813 1.56216C12.5384 1.2767 11.3224 1.13584 10.1044 1.13584C8.76414 1.13584 7.40977 1.30592 6.14672 1.6522C3.13614 -0.400383 1.8073 0.0202516 1.8073 0.0202516C0.939787 2.18835 1.47587 3.79354 1.63881 4.1922C0.619171 5.29198 -0.0032959 6.69636 -0.0032959 8.41758C-0.0032959 9.71701 0.144689 10.8825 0.506239 11.8957C0.526291 11.9738 0.519792 11.9564 0.553575 12.0233C0.633228 12.2331 0.721791 12.4367 0.821333 12.6333C0.855442 12.704 0.886489 12.7564 0.886489 12.7564C1.90284 14.6498 3.9064 15.8728 7.47121 16.2569L12.8628 16.263C16.6645 15.8862 18.4888 14.6595 19.3294 12.7533L19.3828 12.6292C19.4625 12.4367 19.5319 12.2363 19.7219 11.5619C19.9118 10.8875 19.9967 9.7196 19.9967 8.41706C19.9967 6.54896 19.2947 5.05418 18.1546 3.91697C18.3538 3.27428 18.62 1.84696 17.8889 0.0197307C17.8889 0.0197307 17.7864 -0.012746 17.5748 -0.0158879L17.5748 -0.0158716ZM13.326 6.83954C14.2038 6.83763 14.9558 6.98826 15.5204 7.58022V7.58072C16.2268 8.32209 16.6402 9.21718 16.6402 10.1818C16.6402 14.6855 13.7419 14.808 10.167 14.808C6.59146 14.808 3.69375 14.1839 3.69375 10.1818C3.69375 9.22356 4.10112 8.33383 4.79884 7.59547C5.9627 6.36494 7.93227 7.01656 10.167 7.01656C11.3141 7.01638 12.3915 6.84156 13.326 6.83952L13.326 6.83954ZM6.66692 8.16576C5.92307 8.16576 5.32004 9.17085 5.32004 10.4112C5.32004 11.6518 5.92304 12.6572 6.66692 12.6572C7.41078 12.6572 8.01381 11.6518 8.01381 10.4112C8.01381 9.17103 7.41081 8.16666 6.66692 8.16576ZM13.8935 8.16576C13.1497 8.16576 12.5466 9.17085 12.5466 10.4112C12.5466 11.6518 13.1496 12.6572 13.8935 12.6572C14.6374 12.6572 15.2404 11.6518 15.2404 10.4112C15.2404 9.17103 14.6374 8.16666 13.8935 8.16576Z" fill="black"/>
</g>
<defs>
<clipPath id="clip0">
<rect width="20" height="16.2791" fill="white"/>
</clipPath>
</defs>
</svg>
