<svg width="821" height="201" viewBox="0 0 821 201" fill="none" xmlns="http://www.w3.org/2000/svg">
<path d="M217.089 0.00298392C210.412 -0.095707 194.901 2.16916 169.004 19.4871C154.89 15.9626 139.873 14.2233 124.829 14.2233C108.278 14.2233 91.5511 16.3234 75.9525 20.5988C38.772 -4.74463 22.3609 0.449003 22.3609 0.449003C11.647 27.2188 18.2677 47.0384 20.28 51.9606C7.68745 65.5398 0 82.8798 0 104.132C0 120.176 1.82762 134.567 6.29275 147.076C6.54039 148.042 6.46012 147.826 6.87734 148.653C7.86106 151.242 8.95481 153.756 10.1842 156.184C10.6054 157.057 10.9888 157.704 10.9888 157.704C23.5407 181.082 48.2846 196.183 92.31 200.925L158.896 201C205.847 196.348 228.376 181.202 238.758 157.666L239.418 156.134C240.402 153.756 241.26 151.282 243.605 142.956C245.951 134.629 247 120.208 247 104.126C247 81.0598 238.33 62.6036 224.249 48.5623C226.71 40.6269 229.997 23.0036 220.968 0.442571C220.968 0.442571 219.702 0.0415759 217.089 0.00278292L217.089 0.00298392ZM164.616 84.6476C175.458 84.6241 184.744 86.484 191.717 93.7929V93.7992C200.441 102.953 205.547 114.005 205.547 125.915C205.547 181.523 169.753 183.035 125.603 183.035C81.4451 183.035 45.6584 175.33 45.6584 125.915C45.6584 114.083 50.6894 103.098 59.3063 93.9813C73.6799 78.7877 98.004 86.8333 125.603 86.8333C139.77 86.8311 153.075 84.6726 164.617 84.6474L164.616 84.6476ZM82.3771 101.023C73.1905 101.023 65.743 113.433 65.743 128.748C65.743 144.065 73.1901 156.479 82.3771 156.479C91.5636 156.479 99.0111 144.065 99.0111 128.748C99.0111 113.435 91.564 101.034 82.3771 101.023ZM171.625 101.023C162.439 101.023 154.991 113.433 154.991 128.748C154.991 144.065 162.438 156.479 171.625 156.479C180.812 156.479 188.259 144.065 188.259 128.748C188.259 113.435 180.812 101.034 171.625 101.023Z" fill="black"/>
<path d="M407.696 93.312H364.636C363.525 93.312 362.623 94.215 362.623 95.326V116.379C362.623 117.49 363.525 118.394 364.635 118.394H381.434V144.551C381.434 144.551 377.662 145.837 367.234 145.837C354.931 145.837 337.744 141.341 337.744 103.549C337.744 65.749 355.641 60.776 372.442 60.776C386.985 60.776 393.251 63.336 397.237 64.57C398.49 64.954 399.649 63.707 399.649 62.595L404.452 42.253C404.452 41.733 404.276 41.107 403.683 40.682C402.064 39.527 392.187 34 367.233 34C338.488 34 309 46.23 309 105.023C309 163.818 342.76 172.579 371.21 172.579C394.765 172.579 409.054 162.513 409.054 162.513C409.644 162.188 409.707 161.365 409.707 160.987V95.326C409.707 94.216 408.806 93.312 407.696 93.312ZM629.496 41.359C629.496 40.239 628.608 39.335 627.497 39.335H603.251C602.986 39.336 602.724 39.3892 602.48 39.4915C602.236 39.5938 602.014 39.7432 601.828 39.9311C601.641 40.1191 601.494 40.3419 601.393 40.5869C601.293 40.8319 601.242 41.0943 601.243 41.359L601.249 88.215H563.457V41.36C563.457 40.24 562.565 39.336 561.456 39.336H537.21C536.676 39.3389 536.165 39.5538 535.789 39.9333C535.414 40.3128 535.204 40.826 535.207 41.36V168.232C535.207 169.352 536.107 170.262 537.21 170.262H561.455C562.564 170.262 563.455 169.352 563.455 168.232V113.964H601.248L601.182 168.231C601.182 169.351 602.082 170.261 603.19 170.261H627.494C628.604 170.261 629.492 169.351 629.494 168.231V41.36L629.496 41.359ZM453.37 58.322C453.37 49.592 446.37 42.536 437.735 42.536C429.108 42.536 422.103 49.591 422.103 58.322C422.103 67.042 429.108 74.117 437.735 74.117C446.37 74.117 453.37 67.042 453.37 58.322ZM451.446 141.534V82.97C451.446 81.858 450.549 80.949 449.44 80.949H425.271C424.162 80.949 423.171 82.093 423.171 83.205V167.11C423.171 169.576 424.707 170.309 426.696 170.309H448.471C450.861 170.309 451.446 169.136 451.446 167.07V141.534ZM722.162 80.95H698.102C696.998 80.95 696.1 81.859 696.1 82.978V145.188C696.1 145.188 689.988 149.66 681.312 149.66C672.637 149.66 670.335 145.723 670.335 137.229V82.979C670.335 81.859 669.438 80.949 668.334 80.949H643.915C642.813 80.949 641.91 81.859 641.91 82.979V141.337C641.91 166.567 655.973 172.74 675.318 172.74C691.188 172.74 703.983 163.973 703.983 163.973C703.983 163.973 704.593 168.593 704.868 169.141C705.144 169.688 705.862 170.239 706.638 170.239L722.173 170.171C723.275 170.171 724.178 169.26 724.178 168.146L724.17 82.978C724.17 81.859 723.27 80.95 722.162 80.95ZM777.597 149.708C769.252 149.454 763.591 145.667 763.591 145.667V105.488C763.591 105.488 769.176 102.065 776.027 101.453C784.691 100.677 793.04 103.294 793.04 123.963C793.04 145.758 789.272 150.06 777.597 149.708ZM787.087 78.225C773.422 78.225 764.127 84.322 764.127 84.322V41.359C764.129 41.0947 764.079 40.8326 763.979 40.5878C763.879 40.343 763.733 40.1202 763.547 39.9322C763.361 39.7442 763.14 39.5947 762.896 39.4922C762.653 39.3897 762.391 39.3363 762.127 39.335H737.812C737.547 39.3362 737.286 39.3895 737.042 39.4919C736.798 39.5942 736.577 39.7437 736.391 39.9317C736.204 40.1196 736.057 40.3424 735.957 40.5874C735.857 40.8323 735.807 41.0945 735.808 41.359V168.231C735.808 169.351 736.706 170.261 737.815 170.261H754.685C755.445 170.261 756.02 169.871 756.445 169.184C756.864 168.502 757.469 163.334 757.469 163.334C757.469 163.334 767.411 172.756 786.232 172.756C808.328 172.756 821 161.548 821 122.441C821 83.334 800.762 78.225 787.087 78.225ZM521.229 80.73H503.042L503.014 56.703C503.014 55.794 502.546 55.339 501.494 55.339H476.71C475.746 55.339 475.229 55.763 475.229 56.689V81.519C475.229 81.519 462.809 84.517 461.969 84.759C461.55 84.8805 461.182 85.1349 460.92 85.4837C460.658 85.8324 460.517 86.2568 460.517 86.693V102.296C460.517 103.418 461.413 104.323 462.522 104.323H475.229V141.859C475.229 169.739 494.785 172.478 507.982 172.478C514.012 172.478 521.225 170.541 522.416 170.102C523.136 169.837 523.554 169.092 523.554 168.282L523.574 151.118C523.574 149.999 522.629 149.093 521.564 149.093C520.504 149.093 517.794 149.524 515.002 149.524C506.069 149.524 503.042 145.37 503.042 139.994L503.041 104.324H521.229C521.494 104.323 521.756 104.27 522.001 104.167C522.245 104.065 522.467 103.915 522.653 103.726C522.839 103.538 522.987 103.315 523.086 103.069C523.186 102.824 523.237 102.561 523.235 102.296V82.753C523.235 81.633 522.338 80.73 521.229 80.73Z" fill="#11110F"/>
</svg>
