<svg width="256" height="236" viewBox="0 0 256 236" fill="none" xmlns="http://www.w3.org/2000/svg">
<g clip-path="url(#clip0)">
<path d="M128.075 236.075L175.179 91.105H80.97L128.074 236.075H128.075Z" fill="#E24329"/>
<path d="M128.075 236.074L80.97 91.104H14.956L128.075 236.074Z" fill="#FC6D26"/>
<path d="M14.956 91.104L0.64201 135.16C0.00556493 137.119 0.00547713 139.228 0.641759 141.187C1.27804 143.146 2.51803 144.852 4.18401 146.063L128.075 236.075L14.955 91.105L14.956 91.104Z" fill="#FCA326"/>
<path d="M14.956 91.105H80.97L52.601 3.79003C51.141 -0.702971 44.785 -0.701971 43.326 3.79003L14.956 91.105Z" fill="#E24329"/>
<path d="M128.075 236.074L175.179 91.104H241.194L128.074 236.074H128.075Z" fill="#FC6D26"/>
<path d="M241.194 91.104L255.508 135.16C256.144 137.119 256.144 139.228 255.508 141.187C254.871 143.146 253.631 144.853 251.965 146.063L128.075 236.075L241.194 91.105V91.104Z" fill="#FCA326"/>
<path d="M241.194 91.105H175.179L203.549 3.79003C205.009 -0.702971 211.365 -0.701971 212.824 3.79003L241.194 91.105Z" fill="#E24329"/>
</g>
<defs>
<clipPath id="clip0">
<rect width="256" height="236" fill="white"/>
</clipPath>
</defs>
</svg>
