<svg width="256" height="264" viewBox="0 0 256 264" fill="none" xmlns="http://www.w3.org/2000/svg">
<g clip-path="url(#clip0)">
<path d="M255.856 59.62C255.951 59.971 256 60.333 256 60.697V117.265C256 118.743 255.21 120.108 253.927 120.843L206.45 148.18V202.36C206.45 203.085 206.26 203.797 205.898 204.425C205.536 205.054 205.015 205.576 204.388 205.939L105.28 262.992C105.053 263.12 104.806 263.202 104.558 263.291C104.465 263.321 104.378 263.378 104.28 263.404C103.587 263.586 102.859 263.586 102.166 263.404C102.052 263.374 101.949 263.311 101.841 263.27C101.614 263.187 101.377 263.115 101.161 262.992L2.073 205.938C1.44334 205.577 0.920141 205.055 0.556181 204.427C0.19222 203.799 0.000375363 203.086 0 202.36L0 32.656C0 32.284 0.052 31.923 0.144 31.573C0.175 31.454 0.247 31.346 0.289 31.227C0.366 31.011 0.439 30.789 0.552 30.588C0.629 30.454 0.742 30.346 0.835 30.222C0.954 30.057 1.062 29.887 1.201 29.742C1.32 29.624 1.475 29.536 1.609 29.433C1.759 29.309 1.892 29.175 2.062 29.077H2.067L51.613 0.550981C52.2404 0.189913 52.9516 -0.00012207 53.6755 -0.00012207C54.3994 -0.00012207 55.1106 0.189913 55.738 0.550981L105.284 29.077H105.294C105.459 29.181 105.599 29.309 105.748 29.428C105.882 29.531 106.032 29.624 106.15 29.738C106.295 29.887 106.398 30.058 106.521 30.222C106.609 30.346 106.728 30.454 106.8 30.588C106.918 30.794 106.985 31.011 107.068 31.228C107.109 31.346 107.181 31.454 107.212 31.578C107.307 31.929 107.356 32.292 107.357 32.656V138.65L148.643 114.877V60.692C148.643 60.332 148.695 59.965 148.788 59.62C148.824 59.496 148.891 59.388 148.932 59.27C149.015 59.053 149.087 58.83 149.2 58.63C149.277 58.496 149.39 58.388 149.479 58.264C149.602 58.099 149.705 57.929 149.849 57.784C149.969 57.666 150.118 57.578 150.252 57.475C150.407 57.351 150.541 57.217 150.706 57.119H150.711L200.262 28.593C200.889 28.2314 201.601 28.0411 202.324 28.0411C203.048 28.0411 203.76 28.2314 204.387 28.593L253.933 57.119C254.108 57.222 254.242 57.351 254.397 57.469C254.525 57.573 254.675 57.666 254.794 57.779C254.938 57.929 255.041 58.099 255.164 58.264C255.258 58.388 255.371 58.496 255.444 58.63C255.562 58.83 255.629 59.053 255.711 59.27C255.758 59.388 255.825 59.496 255.856 59.62V59.62ZM247.741 114.878V67.838L230.402 77.819L206.449 91.611V138.651L247.746 114.878H247.741V114.878ZM198.195 199.973V152.9L174.633 166.357L107.352 204.757V252.271L198.195 199.971V199.973ZM8.259 39.796V199.973L99.092 252.267V204.762L51.64 177.906L51.625 177.896L51.605 177.886C51.445 177.793 51.31 177.659 51.161 177.546C51.031 177.442 50.882 177.36 50.769 177.246L50.759 177.231C50.625 177.102 50.532 176.942 50.419 176.798C50.315 176.658 50.192 176.54 50.109 176.396L50.104 176.38C50.011 176.226 49.954 176.04 49.887 175.865C49.82 175.71 49.733 175.565 49.691 175.401V175.396C49.64 175.2 49.63 174.993 49.609 174.792C49.589 174.638 49.547 174.483 49.547 174.328V63.57L25.598 49.772L8.259 39.802V39.796ZM53.681 8.89298L12.399 32.656L53.671 56.418L94.947 32.65L53.671 8.89298H53.681ZM75.149 157.191L99.097 143.405V39.796L81.76 49.778L57.805 63.569V167.177L75.149 157.191V157.191ZM202.324 36.935L161.048 60.697L202.324 84.46L243.595 60.692L202.325 36.935H202.324ZM198.194 91.611L174.241 77.819L156.903 67.838V114.878L180.851 128.665L198.195 138.651V91.611H198.194ZM103.217 197.617L163.76 163.053L194.024 145.781L152.778 122.034L105.289 149.374L62.007 174.292L103.217 197.617Z" fill="#FF2D20"/>
</g>
<defs>
<clipPath id="clip0">
<rect width="256" height="264" fill="white"/>
</clipPath>
</defs>
</svg>
