<svg width="20" height="20" viewBox="0 0 20 20" fill="none" xmlns="http://www.w3.org/2000/svg">
<path fill-rule="evenodd" clip-rule="evenodd" d="M0.833313 2.36492C0.833313 1.9587 0.994685 1.56911 1.28193 1.28187C1.56917 0.994626 1.95876 0.833254 2.36498 0.833254H17.6333C17.8346 0.832925 18.034 0.872306 18.2201 0.949143C18.4062 1.02598 18.5753 1.13876 18.7177 1.28103C18.8601 1.42331 18.9731 1.59227 19.0501 1.77826C19.1272 1.96425 19.1668 2.16361 19.1666 2.36492V17.6333C19.1669 17.8346 19.1274 18.034 19.0505 18.2201C18.9735 18.4062 18.8607 18.5753 18.7183 18.7177C18.576 18.8601 18.407 18.973 18.2209 19.0501C18.0349 19.1271 17.8355 19.1667 17.6341 19.1666H2.36498C2.16377 19.1666 1.96453 19.1269 1.77864 19.0499C1.59276 18.9729 1.42387 18.86 1.28163 18.7177C1.13939 18.5754 1.02659 18.4064 0.949665 18.2205C0.872741 18.0346 0.833204 17.8353 0.833313 17.6341V2.36492ZM8.08998 7.82325H10.5725V9.06992C10.9308 8.35325 11.8475 7.70825 13.225 7.70825C15.8658 7.70825 16.4916 9.13575 16.4916 11.7549V16.6066H13.8191V12.3516C13.8191 10.8599 13.4608 10.0183 12.5508 10.0183C11.2883 10.0183 10.7633 10.9258 10.7633 12.3516V16.6066H8.08998V7.82325ZM3.50665 16.4924H6.17998V7.70825H3.50665V16.4916V16.4924ZM6.56248 4.84325C6.56752 5.07215 6.52679 5.29974 6.44268 5.51268C6.35857 5.72562 6.23277 5.91962 6.07267 6.08328C5.91257 6.24694 5.7214 6.37698 5.51036 6.46576C5.29932 6.55454 5.07268 6.60027 4.84373 6.60027C4.61478 6.60027 4.38814 6.55454 4.1771 6.46576C3.96606 6.37698 3.77489 6.24694 3.61479 6.08328C3.45469 5.91962 3.32889 5.72562 3.24478 5.51268C3.16067 5.29974 3.11994 5.07215 3.12498 4.84325C3.13487 4.39397 3.3203 3.96641 3.64155 3.65216C3.9628 3.3379 4.39433 3.16194 4.84373 3.16194C5.29313 3.16194 5.72466 3.3379 6.04591 3.65216C6.36716 3.96641 6.55259 4.39397 6.56248 4.84325Z" fill="black"/>
</svg>
