<svg width="512" height="120" viewBox="0 0 512 120" fill="none" xmlns="http://www.w3.org/2000/svg">
<path d="M0 118.067H20.077V65.834C20.077 55.532 26.849 48.047 36.525 48.047C45.877 48.047 51.683 53.922 51.683 63.419V118.065H71.195V65.35C71.195 55.129 77.806 48.046 87.481 48.046C97.318 48.046 102.801 54.002 102.801 64.465V118.066H122.877V59.556C122.877 42.495 111.831 31.146 94.979 31.146C82.643 31.146 72.485 37.746 68.371 48.289H67.887C64.743 37.344 56.116 31.147 44.023 31.147C32.413 31.147 23.383 37.666 19.673 47.565H19.27V32.757H0V118.067V118.067ZM166.822 104.305C158.114 104.305 152.309 99.878 152.309 92.876C152.309 86.116 157.872 81.77 167.548 81.126L187.301 79.919V86.438C187.301 96.74 178.191 104.305 166.822 104.305V104.305ZM160.775 119.435C171.74 119.435 182.465 113.721 187.383 104.465H187.786V118.067H207.136V59.315C207.136 42.172 193.349 30.985 172.144 30.985C150.374 30.985 136.75 42.414 135.862 58.349H154.487C155.777 51.266 161.824 46.679 171.338 46.679C181.256 46.679 187.303 51.829 187.303 60.763V66.88L164.726 68.167C143.924 69.455 132.234 78.55 132.234 93.68C132.234 109.052 144.247 119.435 160.775 119.435V119.435ZM295.265 63.178C293.895 45.231 279.945 30.985 257.371 30.985C232.538 30.985 216.411 48.128 216.411 75.41C216.411 103.097 232.537 119.755 257.532 119.755C278.98 119.755 293.734 107.2 295.346 88.125H276.398C274.544 97.782 267.932 103.577 257.773 103.577C245.034 103.577 236.811 93.275 236.811 75.408C236.811 57.863 244.954 47.239 257.612 47.239C268.336 47.239 274.705 54.08 276.318 63.175H295.265V63.178V63.178ZM357.272 0C323.328 0 302.042 23.098 302.042 60.04C302.042 96.982 323.325 120 357.271 120C391.134 120 412.421 96.982 412.421 60.04C412.421 23.098 391.136 0 357.271 0H357.272ZM357.272 17.706C377.992 17.706 391.215 34.124 391.215 60.04C391.215 85.874 377.992 102.293 357.272 102.293C336.47 102.293 323.328 85.875 323.328 60.04C323.328 34.125 336.47 17.706 357.272 17.706V17.706ZM420.89 85.392C421.777 106.802 439.354 120 466.122 120C494.262 120 512 106.157 512 84.104C512 66.801 502.002 57.063 478.378 51.671L464.994 48.612C450.724 45.232 444.837 40.725 444.837 32.999C444.837 23.341 453.707 16.903 466.849 16.903C480.152 16.903 489.262 23.422 490.23 34.287H510.065C509.58 13.844 492.649 0 467.01 0C441.693 0 423.713 13.923 423.713 34.527C423.713 51.106 433.872 61.407 455.318 66.317L470.395 69.859C485.069 73.319 491.035 78.149 491.035 86.519C491.035 96.176 481.28 103.098 467.251 103.098C453.061 103.098 442.338 96.096 441.048 85.392H420.891H420.89Z" fill="white"/>
</svg>
