<svg width="79" height="79" viewBox="0 0 79 79" fill="none" xmlns="http://www.w3.org/2000/svg">
<path d="M54.0039 18.6835C53.6188 18.6835 53.362 18.7354 53.1028 18.7995V18.839H53.1423C53.3225 19.1723 53.6188 19.4315 53.8483 19.7401C54.0286 20.0882 54.1816 20.4462 54.3495 20.7943L54.4013 20.7425C54.7099 20.5227 54.8655 20.1771 54.8655 19.6488C54.7371 19.4933 54.7099 19.3279 54.5964 19.1847C54.468 18.965 54.1841 18.8514 54.0039 18.6835ZM18.9921 62.1162H15.9456C15.8534 57.2672 15.5577 52.4242 15.0593 47.6H15.0347L10.3934 62.1162H8.06538L3.46116 47.6H3.42166C3.06385 52.4313 2.8498 57.2722 2.77979 62.1162H0.00244141C0.152828 56.0287 0.603512 49.9523 1.35285 43.9092H5.1325L9.52935 57.2824H9.55404L13.9904 43.9092H17.5898C18.3872 50.5452 18.8637 56.6134 19.0044 62.1162H18.9921ZM32.2098 48.6813C30.9754 55.4185 29.3287 60.319 27.3118 63.3654C25.7169 65.7181 23.9814 66.9007 22.0903 66.9007C21.5892 66.9007 20.972 66.7451 20.2264 66.4365V64.817C20.5992 64.8689 21.0238 64.9059 21.5003 64.9059C22.3866 64.9059 23.0951 64.6492 23.6358 64.1727C24.2777 63.5802 24.6011 62.9136 24.6011 62.1804C24.6011 61.6669 24.3567 60.6375 23.8432 59.0698L20.5128 48.6813H23.5099L25.9021 56.448C26.4428 58.223 26.6748 59.445 26.5711 60.1511C27.8944 56.6529 28.8078 52.8214 29.3238 48.6813H32.2098ZM72.7886 62.1162H64.1233V43.9092H67.0413V59.8795H72.7886V62.1162ZM61.8594 62.5557L58.5168 60.909C58.813 60.6646 59.0944 60.3955 59.3537 60.0869C60.7806 58.4279 61.4891 55.9468 61.4891 52.6807C61.4891 46.6495 59.1241 43.6426 54.3915 43.6426C52.0758 43.6426 50.2637 44.4005 48.9652 45.9311C47.5506 47.6025 46.8297 50.0712 46.8297 53.325C46.8297 56.527 47.4592 58.8674 48.7208 60.3708C49.8786 61.7089 51.6141 62.3903 53.9422 62.3903C54.8038 62.3903 55.6012 62.2866 56.322 62.0693L60.6818 64.6146L61.8767 62.5581L61.8594 62.5557ZM51.0216 58.465C50.2761 57.2824 49.9156 55.379 49.9156 52.7547C49.9156 48.1653 51.3055 45.8768 54.0952 45.8768C55.5493 45.8768 56.6282 46.4298 57.3095 47.5235C58.0428 48.7183 58.4155 50.597 58.4155 53.1942C58.4155 57.8107 57.0133 60.1388 54.2359 60.1388C52.7695 60.1388 51.703 59.5858 51.0093 58.4921L51.0216 58.465ZM45.5682 57.0775C45.5682 58.6205 45.0028 59.8944 43.8573 60.8695C42.7266 61.8595 41.2207 62.3606 39.3049 62.3606C37.5176 62.3606 35.8067 61.7953 34.123 60.6621L34.9081 59.0945C36.3474 59.8154 37.6459 60.1758 38.8309 60.1758C39.9246 60.1758 40.7862 59.9314 41.4034 59.4549C42.0206 58.9661 42.3934 58.2847 42.3934 57.4231C42.3934 56.3418 41.6354 55.416 40.2579 54.6458C38.984 53.9397 36.4264 52.4856 36.4264 52.4856C35.0365 51.471 34.3551 50.3897 34.3551 48.6023C34.3551 47.1235 34.8686 45.941 35.8981 45.0399C36.9399 44.1141 38.2631 43.6648 39.9098 43.6648C41.548 43.6506 43.154 44.1203 44.5263 45.0152L43.8203 46.5829C42.7172 46.0971 41.5273 45.8393 40.3221 45.825C39.3839 45.825 38.6631 46.057 38.1619 46.5063C37.6608 46.9556 37.3522 47.521 37.3522 48.2295C37.3522 49.3108 38.1249 50.2366 39.537 51.0315C40.8356 51.7376 43.445 53.2312 43.445 53.2312C44.872 54.2335 45.5805 55.3148 45.5805 57.075L45.5682 57.0775ZM76.4424 37.804C74.6797 37.7645 73.3169 37.9447 72.1739 38.4335C71.8529 38.5619 71.3246 38.5619 71.2728 38.9742C71.453 39.1544 71.4777 39.4383 71.6332 39.6802C71.9023 40.1172 72.3541 40.7097 72.7787 41.0183C73.2428 41.3787 73.7045 41.7392 74.181 42.0478C75.0426 42.5761 76.0079 42.8847 76.8546 43.4105C77.3311 43.7191 77.8199 44.1166 78.2939 44.44C78.5383 44.6079 78.6914 44.9041 79 45.0053V44.9411C78.8444 44.7486 78.8074 44.4647 78.6519 44.2351C78.4322 44.0154 78.2149 43.8228 77.9952 43.6055C77.3514 42.7508 76.5794 42.0005 75.7067 41.3812C75.0006 40.9047 73.4576 40.2357 73.1737 39.426L73.1342 39.3741C73.6107 39.3346 74.176 39.1544 74.6377 39.026C75.3833 38.8335 76.077 38.8705 76.8497 38.6779C77.2042 38.5859 77.5557 38.483 77.9038 38.3693V38.1768C77.5064 37.7793 77.2101 37.2386 76.7978 36.8659C75.6618 35.8718 74.4492 34.9687 73.1713 34.165C72.4775 33.7157 71.6036 33.4318 70.8704 33.059C70.6136 32.9307 70.1643 32.8665 70.0211 32.6468C69.6237 32.158 69.3916 31.5284 69.1077 30.9483C68.4619 29.6932 67.8616 28.4152 67.308 27.1168C66.9105 26.2552 66.6784 25.4059 66.1896 24.6085C63.9258 20.8659 61.457 18.6045 57.6774 16.3802C56.8676 15.916 55.89 15.7235 54.8605 15.4791C54.3075 15.4544 53.7669 15.4149 53.2139 15.3902C52.8534 15.2347 52.5078 14.8249 52.1992 14.6175C50.9402 13.8201 47.6987 12.1092 46.7853 14.3731C46.1928 15.8124 47.6592 17.2146 48.1752 17.9355C48.5479 18.449 49.0244 19.0168 49.2935 19.5821C49.449 19.9673 49.4861 20.3672 49.6416 20.7647C49.9897 21.73 50.323 22.8088 50.7871 23.7099C51.0315 24.174 51.2883 24.6604 51.5968 25.0726C51.7771 25.317 52.0857 25.4207 52.1499 25.8182C51.8413 26.2675 51.8166 26.9242 51.6487 27.4649C50.8513 29.9583 51.1599 33.0319 52.2782 34.8711C52.6387 35.4241 53.4731 36.6338 54.5939 36.1697C55.5839 35.7722 55.3666 34.523 55.6481 33.417C55.7123 33.1479 55.6728 32.98 55.8036 32.7998V32.8517C56.1245 33.4689 56.4331 34.0614 56.717 34.6785C57.3861 35.7599 58.5809 36.8782 59.5709 37.6238C60.0992 38.0212 60.509 38.7051 61.1657 38.947V38.8828H61.1139C60.9732 38.6903 60.7929 38.5989 60.6127 38.4459C60.1958 38.0329 59.8089 37.5907 59.4549 37.1226C58.5414 35.8882 57.7193 34.5255 56.9985 33.1232C56.6512 32.4304 56.3341 31.7228 56.048 31.0026C55.9196 30.7458 55.9196 30.3459 55.6999 30.2175C55.3666 30.694 54.8778 31.1038 54.6458 31.7086C54.2211 32.6468 54.1816 33.817 54.0162 35.0266C53.9397 35.0513 53.9767 35.0266 53.9397 35.0785C53.2336 34.8983 52.9892 34.1774 52.73 33.5602C52.061 31.9925 51.9573 29.4843 52.5251 27.6846C52.6806 27.2205 53.3348 25.7688 53.0781 25.3319C52.9374 24.9072 52.5004 24.6628 52.2684 24.3295C51.9721 23.9173 51.6759 23.3914 51.4709 22.9273C50.9426 21.6929 50.6859 20.3302 50.1082 19.0958C49.8514 18.5305 49.3873 17.938 49.0145 17.4121C48.5899 16.8196 48.1283 16.3975 47.8048 15.7013C47.6888 15.4569 47.5358 15.0594 47.716 14.8002C47.7555 14.62 47.8443 14.5558 48.0246 14.5039C48.3085 14.2595 49.1306 14.5681 49.4145 14.7088C50.2242 15.0298 50.9056 15.3384 51.587 15.8025C51.8956 16.0222 52.2289 16.432 52.6288 16.548H53.0929C53.799 16.7036 54.584 16.5875 55.2407 16.7925C56.4109 17.1652 57.4651 17.7059 58.4155 18.2959C61.3222 20.1618 63.686 22.7606 65.2688 25.8305C65.5379 26.3317 65.6539 26.7958 65.8983 27.3217C66.3476 28.4153 66.9278 29.5065 67.3894 30.5483C67.8511 31.5901 68.2905 32.6443 68.9571 33.5059C69.2904 33.97 70.6038 34.212 71.2061 34.444C71.6431 34.6489 72.3245 34.8291 72.7096 35.0612C73.4675 35.5253 74.2131 36.0512 74.9216 36.5647C75.282 36.8091 76.3757 37.3621 76.4399 37.799L76.4424 37.804Z" fill="#F5DE19"/>
</svg>
