<svg width="256" height="191" viewBox="0 0 256 191" fill="none" xmlns="http://www.w3.org/2000/svg">
<path fill-rule="evenodd" clip-rule="evenodd" d="M77.8908 183.615C77.701 183.279 77.5321 182.932 77.3848 182.575C76.3625 180.21 76.0478 177.599 76.4788 175.058H15.9928L105.881 16.874L135.391 68.749L143.948 53.608L118.224 8.29C117.504 6.984 113.159 0 105.668 0C102.283 0 97.4308 1.466 93.4858 8.397L2.42482 168.5C1.65182 169.886 -2.10718 177.164 1.62482 183.615C3.33082 186.547 6.95682 190.039 14.9538 190.039H91.2198C83.2758 190.039 79.5968 186.6 77.8908 183.615V183.615Z" fill="#01C58E"/>
<path fill-rule="evenodd" clip-rule="evenodd" d="M253.242 168.5L178.416 36.68C177.643 35.294 173.324 28.283 165.806 28.283C162.421 28.283 157.57 29.723 153.624 36.653L143.948 53.608L152.558 68.748L165.887 45.158L239.914 175.058H211.764C212.124 177.205 211.922 179.409 211.177 181.456C211.02 181.908 210.824 182.345 210.591 182.762L210.351 183.242C206.566 189.692 198.381 190.039 196.783 190.039H240.82C242.446 190.039 250.603 189.693 254.389 183.242C256.069 180.309 257.268 175.378 253.242 168.5V168.5Z" fill="#108775"/>
<path fill-rule="evenodd" clip-rule="evenodd" d="M210.351 183.242L210.591 182.762C210.824 182.344 211.021 181.907 211.177 181.456C211.922 179.409 212.124 177.206 211.764 175.058C211.349 172.742 210.518 170.52 209.311 168.5L152.611 68.7489L143.948 53.6079L135.338 68.7479L78.6638 168.5C77.5637 170.544 76.8245 172.763 76.4788 175.058C76.0227 177.591 76.3095 180.202 77.3048 182.575C77.4518 182.932 77.6208 183.279 77.8108 183.615C79.5168 186.547 83.1428 190.039 91.1398 190.039H196.703C198.382 190.039 206.566 189.693 210.351 183.242V183.242ZM143.948 83.8899L195.77 175.058H92.1528L143.948 83.8899V83.8899Z" fill="#2F495E"/>
</svg>
