<svg width="265" height="223" viewBox="0 0 265 223" fill="none" xmlns="http://www.w3.org/2000/svg">
<path d="M119.098 163.425C119.84 173.272 119.696 183.167 118.667 192.989C118.624 194.369 118.221 195.714 117.499 196.888C116.777 198.063 115.761 199.025 114.553 199.68C106.765 205.502 80.6664 206.898 77.4146 194.527C76.2151 194.48 77.1709 190.479 76.0276 190.63C73.7448 190.441 71.5379 189.715 69.5847 188.51C67.6314 187.306 65.9864 185.656 64.7821 183.694C64.829 170.162 66.3096 121.347 42.291 134.492C37.0717 137.421 33.1575 142.244 31.3454 147.977C29.727 152.979 28.9664 158.222 29.0963 163.481C28.9089 170.219 30.5769 177.589 30.8206 185.676C30.9143 189.29 31.486 190.205 28.8151 193.282C24.5137 198.236 17.0073 194.055 12.9496 188.611C11.2335 185.868 10.2908 182.707 10.2225 179.467C6.99527 144.118 10.1706 108.474 19.5938 74.2684C23.0331 62.6615 24.2326 60.9818 35.1782 58.3773C47.6327 55.6189 60.4411 54.8546 73.1319 56.1126C82.9811 52.8853 106.353 35.4089 116.437 49.2806C131.736 45.86 147.562 45.5589 162.979 48.3951C178.396 51.2313 193.094 57.1474 206.204 65.7944C219.483 66.8065 232.809 67.0491 246.116 66.5211C247.991 65.3132 250.183 64.0204 252.095 62.9069C253.498 61.95 255.074 61.2799 256.734 60.9346C258.889 60.5949 261.701 60.5006 262.357 63.1994C262.927 65.969 263.12 68.8042 262.928 71.6262C262.863 73.3274 262.235 74.9578 261.143 76.2575C260.051 77.5572 258.558 78.4515 256.903 78.7979C253.162 78.1796 249.535 76.9961 246.144 75.2876C233.962 75.6273 226.465 74.9478 214.282 75.2876C216.241 77.4013 216.156 78.7979 217.581 81.5911C221.082 90.8698 222.251 100.876 220.984 110.72C219.717 120.563 216.053 129.939 210.318 138.012C209.456 152.072 210.505 166.274 210.609 180.382C210.655 185.242 210.993 189.866 206.448 193.093C202.439 195.513 197.933 196.975 193.275 197.368C188.618 197.761 183.933 197.073 179.58 195.358C177.208 193.987 175.09 192.211 173.32 190.111C171.764 190.283 170.196 190.314 168.635 190.205C165.98 189.458 163.685 187.764 162.178 185.44C161.314 183.85 160.577 182.193 159.976 180.486C159.976 173.88 159.732 171.295 159.732 164.698C146.221 167.133 132.358 166.741 119.004 163.547L119.098 163.425Z" fill="#CCCCCC"/>
<path d="M97.1717 204.972C93.3014 205.03 89.4483 204.447 85.768 203.247C83.725 202.698 81.8381 201.68 80.257 200.274C78.676 198.868 77.4444 197.112 76.6601 195.146C75.9772 194.295 75.6423 193.216 75.7231 192.127V191.705C73.3414 191.348 71.0638 190.485 69.0434 189.173C67.0231 187.862 65.3069 186.132 64.0103 184.102L63.7854 183.736V181.298C63.8697 170.216 64.0852 140.767 54.0965 134.776C52.4153 133.958 50.5437 133.614 48.6818 133.779C46.82 133.944 45.0381 134.613 43.5268 135.713C38.6035 138.458 34.9158 142.983 33.2195 148.361C31.6747 153.168 30.9524 158.202 31.0831 163.25C31.0835 167.014 31.3497 170.774 31.8796 174.501C32.2825 177.932 32.6948 181.495 32.8166 185.236C32.8166 185.789 32.8166 186.267 32.8822 186.699C33.0955 187.995 32.9847 189.325 32.5595 190.568C32.1344 191.811 31.4083 192.93 30.4459 193.824C29.6849 194.724 28.7267 195.435 27.6459 195.903C26.5651 196.372 25.391 196.584 24.2147 196.524C21.8135 196.193 19.5086 195.36 17.4491 194.081C15.3895 192.802 13.6212 191.105 12.2582 189.099C10.3365 186.161 9.29 182.737 9.24102 179.226C5.97257 143.921 9.17346 108.316 18.6863 74.1615C22.2001 62.395 23.7462 60.0979 35.356 57.3508C47.8639 54.5965 60.7252 53.8151 73.4742 55.035C76.2768 53.9431 79.0143 52.6909 81.6732 51.2847C93.2174 45.5092 108.941 37.6617 117.571 48.1532C132.866 44.8505 148.665 44.615 164.052 47.4603C179.439 50.3055 194.11 56.1751 207.216 64.7295C220.189 65.7055 233.207 65.9309 246.206 65.4046C248.08 64.2514 250.066 63.0513 251.884 62.0012L252.409 61.7012C253.814 60.7781 255.387 60.1409 257.038 59.826C261.198 59.1791 263.597 60.3229 264.319 63.2107C264.919 66.1041 265.124 69.0658 264.928 72.0145C264.834 74.0632 264.05 76.0199 262.705 77.567C261.359 79.1141 259.531 80.1608 257.516 80.5371H257.272L257.038 80.4714C256.229 80.2646 255.417 80.0708 254.602 79.8901C251.678 79.3894 248.847 78.4473 246.206 77.0961C240.274 77.2462 235.383 77.1618 230.661 77.0961C226.603 77.0305 222.433 76.9555 217.598 77.0305C217.898 77.6212 218.114 78.1931 218.348 78.7744C218.652 79.5937 219.003 80.395 219.397 81.1746C223.033 90.5946 224.284 100.768 223.04 110.788C221.796 120.809 218.095 130.367 212.267 138.61C211.742 147.667 212.014 156.959 212.267 165.95C212.407 170.554 212.548 175.326 212.576 180.014V180.82C213.027 183.228 212.819 185.714 211.972 188.014C211.126 190.313 209.674 192.34 207.769 193.881C203.56 196.445 198.813 197.997 193.903 198.415C188.993 198.833 184.053 198.106 179.471 196.29C177.454 195.291 175.657 193.898 174.186 192.193C173.858 191.855 173.53 191.518 173.193 191.199C172.734 191.199 172.256 191.255 171.834 191.302C170.808 191.464 169.761 191.445 168.742 191.246C165.728 190.411 163.12 188.509 161.405 185.892C160.745 184.828 160.208 183.693 159.803 182.508C159.583 181.913 159.345 181.325 159.09 180.745L158.959 180.454V180.136C158.959 176.882 158.903 174.566 158.837 172.335C158.791 170.46 158.744 168.585 158.725 166.156C146.286 168.204 133.575 167.911 121.244 165.294C121.807 174.455 121.603 183.647 120.635 192.774C120.564 194.338 120.097 195.858 119.278 197.192C118.458 198.525 117.313 199.628 115.95 200.397C110.241 203.649 103.735 205.234 97.1717 204.972V204.972ZM78.7216 192.615H79.0589L79.34 193.684C79.9068 195.341 80.8838 196.827 82.1798 198.004C83.4759 199.181 85.0488 200.011 86.7519 200.415C95.8479 203.19 105.665 202.319 114.132 197.987C115.172 197.457 116.049 196.653 116.668 195.662C117.287 194.671 117.625 193.53 117.646 192.362C118.625 183.093 118.797 173.758 118.161 164.459L117.365 164.234L120.644 157.728L121.028 162.069C133.869 164.91 147.144 165.19 160.093 162.894L161.789 162.669V164.375C161.789 167.628 161.845 169.944 161.911 172.176C161.976 174.407 162.023 176.61 162.033 179.742C162.267 180.295 162.473 180.829 162.679 181.345C163.01 182.327 163.447 183.27 163.982 184.158C165.294 186.169 167.292 187.635 169.604 188.283C170.275 188.384 170.957 188.384 171.628 188.283C172.387 188.193 173.15 188.153 173.914 188.161H174.476L174.889 188.546C175.395 189.015 175.901 189.53 176.407 190.046C177.609 191.457 179.073 192.622 180.717 193.477C184.833 195.084 189.262 195.73 193.666 195.366C198.069 195.003 202.332 193.638 206.129 191.377C209.765 188.808 209.718 185.283 209.662 180.811V179.995C209.662 175.307 209.493 170.619 209.353 166.006C209.081 156.753 208.8 147.18 209.353 137.795V137.176L209.821 136.763C215.345 128.99 218.867 119.973 220.075 110.512C221.283 101.051 220.139 91.4379 216.746 82.5247C216.301 81.6509 215.907 80.7525 215.565 79.8339C215.188 78.6271 214.548 77.5191 213.691 76.5899L211.433 74.1615L214.74 74.0678C220.869 73.899 225.872 73.9834 230.726 74.0678C235.58 74.1522 240.518 74.2365 246.571 74.0678H247.012L247.386 74.3022C249.829 75.6267 252.472 76.542 255.211 77.0118C255.979 77.1899 256.738 77.3587 257.478 77.5462C258.711 77.1627 259.795 76.4091 260.585 75.3876C261.374 74.3661 261.831 73.1263 261.892 71.8364C262.071 69.1769 261.888 66.5054 261.348 63.8951C261.217 63.3232 260.964 62.245 257.45 62.7981C256.165 63.0509 254.943 63.5543 253.852 64.2795L253.327 64.5795C251.453 65.6484 249.307 66.9516 247.415 68.1329L247.068 68.3486H246.665C233.3 68.8962 219.915 68.6551 206.579 67.6266H206.185L205.857 67.4016C192.913 58.9091 178.397 53.1018 163.17 50.3238C147.942 47.5457 132.312 47.8533 117.205 51.2284L116.268 51.3972L115.715 50.6471C108.716 41.0839 93.8452 48.5189 82.9851 53.9474C80.1099 55.4862 77.1362 56.833 74.0833 57.979L73.7835 58.0727H73.4742C60.9419 56.8357 48.2931 57.5824 35.9931 60.2854C25.4891 62.7606 24.7488 64.0357 21.4973 75.0429C12.0761 108.843 8.90062 144.079 12.1271 179.02C12.1472 181.954 12.9843 184.824 14.5446 187.308C15.6477 188.954 17.0753 190.357 18.7398 191.431C20.4043 192.504 22.2706 193.226 24.2241 193.552C24.9554 193.595 25.6864 193.465 26.3585 193.174C27.0305 192.882 27.625 192.437 28.094 191.874C28.7988 191.272 29.329 190.491 29.629 189.614C29.929 188.736 29.9879 187.794 29.7994 186.886C29.7994 186.427 29.7432 185.949 29.7338 185.349C29.5905 181.841 29.2778 178.343 28.7968 174.867C28.2487 171.006 27.9763 167.112 27.9816 163.212C27.8445 157.804 28.6401 152.412 30.3335 147.274C32.2818 141.259 36.4328 136.204 41.9526 133.126C43.9086 131.751 46.2028 130.937 48.5875 130.771C50.9722 130.606 53.3566 131.096 55.4833 132.188C66.9432 139.061 66.7276 168.66 66.6339 181.298V182.864C67.7063 184.491 69.1271 185.858 70.7932 186.866C72.4594 187.875 74.329 188.5 76.2666 188.696C76.5172 188.668 76.7708 188.691 77.0123 188.763C77.2538 188.836 77.4783 188.956 77.6721 189.118C78.0112 189.498 78.2691 189.944 78.4302 190.427C78.5913 190.911 78.6522 191.422 78.6091 191.93C78.6935 192.146 78.7029 192.418 78.7216 192.615V192.615Z" fill="#CCCCCC"/>
<path d="M114.098 159.678C114.84 169.464 114.696 179.298 113.667 189.058C113.624 190.43 113.221 191.766 112.499 192.933C111.777 194.1 110.761 195.056 109.553 195.707C101.765 201.492 75.6664 202.88 72.4146 190.586C71.2151 190.54 72.1709 186.563 71.0276 186.713C68.7448 186.526 66.5379 185.804 64.5847 184.607C62.6314 183.41 60.9864 181.771 59.7821 179.821C59.829 166.374 61.3096 117.864 37.291 130.927C32.0717 133.837 28.1575 138.63 26.3454 144.327C24.727 149.298 23.9664 154.508 24.0963 159.734C23.9089 166.43 25.5769 173.754 25.8206 181.79C25.9143 185.382 26.486 186.292 23.8151 189.349C19.5137 194.272 12.0073 190.118 7.94957 184.707C6.23351 181.981 5.29083 178.84 5.22253 175.62C1.99527 140.493 5.17056 105.071 14.5938 71.0792C18.0331 59.5449 19.2326 57.8757 30.1782 55.2875C42.6327 52.5462 55.4411 51.7867 68.1319 53.0369C77.9811 49.8298 101.353 32.4626 111.437 46.2475C126.736 42.8483 142.562 42.5491 157.979 45.3676C173.396 48.1861 188.094 54.0652 201.204 62.6582C214.483 63.664 227.809 63.9051 241.116 63.3803C242.991 62.18 245.183 60.8952 247.095 59.7887C248.498 58.8378 250.074 58.1719 251.734 57.8288C253.889 57.4912 256.701 57.3974 257.357 60.0794C257.927 62.8317 258.12 65.6491 257.928 68.4535C257.863 70.1441 257.235 71.7643 256.143 73.0559C255.051 74.3475 253.558 75.2362 251.903 75.5804C248.162 74.9659 244.535 73.7899 241.144 72.092C228.962 72.4296 221.465 71.7544 209.282 72.092C211.241 74.1926 211.156 75.5804 212.581 78.3562C216.082 87.5769 217.251 97.5207 215.984 107.303C214.717 117.085 211.053 126.402 205.318 134.424C204.456 148.397 205.505 162.51 205.609 176.53C205.655 181.359 205.993 185.954 201.448 189.161C197.439 191.566 192.933 193.019 188.275 193.409C183.618 193.8 178.933 193.116 174.58 191.412C172.208 190.049 170.09 188.285 168.32 186.198C166.764 186.368 165.196 186.4 163.635 186.292C160.98 185.549 158.685 183.866 157.178 181.556C156.314 179.976 155.577 178.33 154.976 176.633C154.976 170.068 154.732 167.499 154.732 160.944C141.221 163.364 127.358 162.974 114.004 159.8L114.098 159.678Z" fill="#373435"/>
<path d="M92.1883 200.975C88.3174 201.033 84.4635 200.45 80.7827 199.25C78.7393 198.701 76.852 197.683 75.2707 196.277C73.6893 194.871 72.4575 193.115 71.6731 191.149C70.99 190.298 70.6551 189.219 70.7359 188.13V187.709C68.3538 187.351 66.0758 186.488 64.055 185.176C62.0343 183.865 60.3178 182.136 59.021 180.105L58.796 179.739V177.302C58.8804 166.219 59.0959 136.77 49.1054 130.779C47.424 129.962 45.552 129.618 43.6898 129.783C41.8276 129.948 40.0454 130.616 38.5339 131.717C33.6096 134.462 29.9213 138.987 28.2247 144.365C26.6796 149.172 25.9572 154.206 26.0879 159.253C26.0882 163.018 26.3544 166.777 26.8845 170.504C27.2875 173.945 27.6999 177.498 27.8217 181.249C27.8217 181.802 27.8217 182.28 27.8873 182.711C28.1007 184.008 27.9898 185.337 27.5646 186.581C27.1394 187.824 26.4132 188.943 25.4506 189.837C24.6899 190.737 23.7316 191.449 22.6505 191.917C21.5695 192.385 20.3948 192.598 19.2183 192.537C16.8166 192.205 14.5113 191.373 12.4514 190.094C10.3915 188.815 8.62282 187.117 7.25966 185.112C5.33804 182.174 4.2914 178.75 4.24189 175.239C0.971704 139.931 4.17318 104.323 13.6888 70.1655C17.2033 58.399 18.7497 56.102 30.3615 53.3549C42.8716 50.6002 55.7353 49.8189 68.4866 51.0391C71.2897 49.9472 74.0277 48.695 76.6871 47.2888C88.2334 41.5134 103.959 33.6565 112.591 44.1573C127.89 40.8566 143.692 40.6228 159.082 43.4697C174.472 46.3165 189.145 52.1874 202.253 60.7429C215.212 61.7237 228.217 61.9553 241.202 61.4367C243.03 60.3023 245.073 59.074 246.882 58.0333L247.407 57.7333C248.812 56.8103 250.385 56.1731 252.036 55.8582C256.198 55.2113 258.597 56.3551 259.318 59.2428C259.92 62.1362 260.124 65.0979 259.928 68.0466C259.833 70.0953 259.05 72.052 257.704 73.5991C256.358 75.1462 254.53 76.1928 252.514 76.5691H252.271L252.036 76.5035C251.227 76.2966 250.415 76.1028 249.6 75.9222C246.697 75.4091 243.888 74.4609 241.268 73.1095C235.336 73.2595 230.443 73.1751 225.72 73.1095C221.662 73.0438 217.491 72.9688 212.655 73.0438C212.955 73.6345 213.171 74.2064 213.405 74.7877C213.709 75.607 214.06 76.4083 214.455 77.1879C218.09 86.608 219.341 96.7808 218.096 106.801C216.852 116.822 213.151 126.379 207.323 134.623C206.798 143.68 207.07 152.972 207.323 161.954C207.454 166.566 207.595 171.329 207.632 176.017V176.823C208.085 179.231 207.877 181.716 207.033 184.015C206.188 186.315 204.737 188.342 202.834 189.884C198.624 192.448 193.876 194 188.965 194.418C184.054 194.836 179.113 194.109 174.53 192.293C172.513 191.294 170.716 189.901 169.245 188.196C168.917 187.859 168.588 187.521 168.251 187.202C167.792 187.202 167.314 187.259 166.892 187.305C165.866 187.467 164.819 187.448 163.799 187.249C160.785 186.415 158.177 184.512 156.461 181.896C155.801 180.832 155.263 179.696 154.859 178.511C154.639 177.916 154.401 177.329 154.146 176.748L154.015 176.458V176.139C154.015 172.886 153.959 170.57 153.893 168.338C153.846 166.463 153.79 164.588 153.781 162.16C141.34 164.207 128.627 163.914 116.293 161.297C116.833 170.451 116.607 179.633 115.618 188.749C115.548 190.313 115.081 191.833 114.261 193.167C113.441 194.5 112.296 195.603 110.932 196.372C105.236 199.627 98.7434 201.222 92.1883 200.975V200.975ZM73.7349 188.618H74.0723L74.3535 189.687C74.9203 191.344 75.8975 192.83 77.1938 194.007C78.4901 195.185 80.0633 196.014 81.7667 196.419C90.8642 199.194 100.684 198.324 109.152 193.99C110.192 193.46 111.069 192.656 111.688 191.665C112.307 190.674 112.645 189.533 112.666 188.365C113.645 179.097 113.818 169.761 113.181 160.463L112.385 160.238L115.618 153.778L116.002 158.119C128.846 160.96 142.123 161.24 155.074 158.944L156.77 158.719V160.425C156.77 163.679 156.827 165.994 156.892 168.226C156.958 170.457 157.005 172.661 157.014 175.792C157.248 176.345 157.455 176.88 157.661 177.405C157.991 178.387 158.428 179.33 158.963 180.217C160.276 182.229 162.274 183.695 164.587 184.343C165.258 184.444 165.94 184.444 166.611 184.343C167.37 184.253 168.134 184.212 168.898 184.221H169.46L169.872 184.605C170.379 185.074 170.885 185.543 171.391 186.105C172.594 187.516 174.058 188.681 175.702 189.537C179.819 191.144 184.248 191.79 188.653 191.426C193.057 191.062 197.321 189.698 201.119 187.437C204.755 184.868 204.708 181.342 204.652 176.87V176.055C204.652 171.367 204.483 166.679 204.342 162.057C204.071 152.803 203.79 143.24 204.342 133.855V133.236L204.811 132.823C210.335 125.05 213.857 116.033 215.065 106.572C216.274 97.1111 215.13 87.4981 211.737 78.5849C211.293 77.7111 210.898 76.8127 210.556 75.894C210.179 74.6873 209.539 73.5793 208.682 72.6501L206.423 70.2218L209.731 70.128C215.861 69.9592 220.865 70.0436 225.72 70.128C230.575 70.2124 235.514 70.2968 241.568 70.128H242.008L242.383 70.3624C244.826 71.6869 247.47 72.6022 250.209 73.072C250.977 73.2501 251.736 73.4189 252.477 73.6064C253.709 73.2229 254.794 72.4693 255.584 71.4478C256.374 70.4263 256.83 69.1865 256.891 67.8966C257.07 65.2371 256.887 62.5657 256.347 59.9554C256.216 59.3834 255.963 58.3146 252.449 58.8584C251.164 59.111 249.941 59.6143 248.85 60.3398L248.316 60.6398C246.441 61.718 244.276 63.0212 242.402 64.1932L242.14 64.3807H241.737C228.37 64.9277 214.982 64.6867 201.643 63.6588H201.25L200.903 63.415C187.956 54.9225 173.438 49.1153 158.208 46.3372C142.977 43.5592 127.344 43.8668 112.235 47.2419L111.298 47.4107L110.745 46.6606C103.744 37.0974 88.8707 44.5323 78.0086 49.9609C75.1329 51.4997 72.1586 52.8465 69.1052 53.9924L68.8053 54.0862H68.496C55.9615 52.8485 43.3103 53.5952 31.0082 56.2988C20.5022 58.774 19.7619 60.0491 16.5098 71.0562C7.08685 104.856 3.9108 140.092 7.13783 175.033C7.15792 177.967 7.99526 180.837 9.55579 183.321C10.6591 184.967 12.0869 186.369 13.7517 187.443C15.4166 188.517 17.2832 189.239 19.237 189.565C19.969 189.613 20.7019 189.485 21.375 189.194C22.048 188.902 22.642 188.454 23.1076 187.887C23.8126 187.284 24.3428 186.504 24.6429 185.626C24.943 184.749 25.0018 183.807 24.8133 182.899C24.8133 182.439 24.7571 181.961 24.7477 181.361C24.6044 177.854 24.2917 174.356 23.8105 170.879C23.262 167.019 22.9896 163.124 22.9952 159.225C22.8581 153.817 23.6539 148.425 25.3475 143.287C27.2962 137.272 31.448 132.217 36.9688 129.139C38.9251 127.764 41.2197 126.95 43.6048 126.784C45.9899 126.619 48.3748 127.109 50.5019 128.201C61.9638 135.073 61.7482 164.673 61.6545 177.311V178.877C62.7407 180.508 64.1783 181.875 65.8617 182.877C67.5451 183.88 69.4315 184.493 71.3826 184.671C71.6332 184.643 71.8869 184.666 72.1285 184.738C72.37 184.811 72.5945 184.931 72.7884 185.093C73.1275 185.473 73.3855 185.919 73.5466 186.403C73.7078 186.886 73.7686 187.398 73.7256 187.905C73.7096 188.143 73.7127 188.381 73.7349 188.618V188.618Z" fill="#373435"/>
<path d="M158.74 158.786C161.704 158.494 164.631 157.895 167.478 157C168.907 165.577 169.332 174.298 168.743 182.978C166.586 183.117 164.438 182.595 162.572 181.479C160.707 180.363 159.208 178.704 158.269 176.713C157.792 170.737 157.95 164.727 158.74 158.786V158.786Z" fill="#6978AB"/>
<path d="M167.944 183.993C165.555 184.074 163.193 183.459 161.147 182.221C159.1 180.983 157.455 179.176 156.412 177.019L156.273 176.759V176.461C155.788 170.465 155.95 164.434 156.756 158.473L156.904 157.318L158.056 157.188C160.936 156.907 163.782 156.339 166.551 155.493L168.074 155L168.445 156.564C169.842 164.188 170.3 171.955 169.81 179.691L169.736 183.965H168.306L167.944 183.993ZM159.179 175.893C159.904 177.327 160.988 178.548 162.324 179.437C163.66 180.326 165.202 180.853 166.802 180.967V179.626C167.201 172.667 166.89 165.685 165.873 158.789C163.79 159.339 161.671 159.743 159.532 160C158.884 165.285 158.762 170.621 159.17 175.93L159.179 175.893Z" fill="#373435"/>
<path d="M21.4798 185.116C19.3613 171.264 17.205 146.82 27.1294 135.167C27.9148 134.111 28.7638 133.104 29.6717 132.15C45.3303 117.434 58.974 130.092 62.6744 146.388C63.4588 156.691 63.6191 167.031 63.1546 177.353C64.0796 179.149 65.5073 180.638 67.2641 181.639C69.0209 182.64 71.0313 183.11 73.0507 182.992C74.4914 185.962 74.1053 188.17 75.7437 190.134C78.8534 193.618 82.9321 196.099 87.4598 197.26C91.9874 198.422 96.7591 198.212 101.167 196.656C104.116 195.408 106.987 193.984 109.763 192.39C112.011 179.784 111.691 166.855 108.822 154.376C108.822 152.647 108.247 151.5 108.247 149.771C109.325 149.925 110.338 150.374 111.176 151.068C109.293 157.966 135.243 162.712 165.515 154.376C165.854 153.173 165.27 151.688 165.995 151.256C166.463 150.963 166.99 150.777 167.539 150.711C168.087 150.644 168.643 150.699 169.168 150.871C169.309 153.079 169.357 155.231 169.507 157.449C171.855 157.67 174.216 157.701 176.569 157.543C175.025 158.93 172.995 159.652 170.92 159.554C171.447 159.554 170.628 160.56 171.108 160.654C172.501 160.992 175.147 160.466 176.249 160.945C174.187 162.148 171.88 161.471 170.486 162.825C170.825 170.155 171.014 178.021 171.306 185.379C175.846 188.819 181.451 190.563 187.146 190.309C192.841 190.055 198.267 187.819 202.482 183.988C203.381 169.264 203.066 154.491 201.54 139.819C200.438 139.678 199.327 139.481 198.226 139.34C215.429 116.24 218.743 92.6049 204.327 71.2721C204.186 70.3324 203.555 69.3926 203.386 68.4528C215.928 67.9735 228.809 69.2704 241.388 68.7911C244.784 70.0745 248.288 71.0526 251.859 71.7138C255.559 70.4169 256.228 60.164 252.584 61.3106C248.94 62.4571 246.934 64.7595 243.027 66.1974C228.611 66.1974 212.613 65.6241 198.207 65.6241C186.446 56.2847 172.517 50.0535 157.705 47.506C142.894 44.9585 127.679 46.1767 113.464 51.0483C117.842 60.4574 120.312 70.6379 120.732 81.0037C121.153 91.3696 119.514 101.716 115.912 111.447C115.093 114.135 102.654 121.992 112.833 113.411C123.115 104.69 116.675 44.1034 104.038 44C89.169 44.154 74.8948 49.8527 64.0209 59.9761C62.053 57.871 62.1942 58.7262 63.0793 55.7565C52.3249 54.8322 41.4913 55.7863 31.0652 58.5758C28.3631 58.6619 25.7496 59.5589 23.566 61.1498C21.3824 62.7408 19.73 64.9518 18.8246 67.4943C9.32231 101.387 5.50439 136.616 7.52548 171.752C8.02023 175.966 9.13713 180.083 10.8399 183.969C16.4894 190.153 19.5402 188.377 21.4139 185.116H21.4798Z" fill="url(#paint0_linear)"/>
<path d="M44.7417 69.7316C41.564 68.2642 38.1136 67.7165 34.7021 68.138C34.3892 68.0993 34.0741 68.1848 33.8106 68.3799C33.547 68.5749 33.3514 68.8674 33.2571 69.2075C33.1302 69.454 33.0482 69.7266 33.0157 70.0095C32.9833 70.2924 33.0011 70.5797 33.0682 70.8546C33.361 71.7852 33.4082 71.7317 34.126 71.9242C35.0766 72.0847 36.0473 71.9895 36.9594 71.6461C38.0376 71.0028 39.2272 70.635 40.4445 70.5685C41.6617 70.502 42.8771 70.7384 44.005 71.2611C45.0628 71.2076 45.1667 70.7156 44.8267 69.7744L44.7417 69.7316Z" fill="#373435"/>
<path d="M34.6641 73C34.2644 73.0012 33.8656 72.9662 33.4744 72.8955H33.3434C32.8097 72.8486 32.308 72.6535 31.9136 72.3394C31.5191 72.0254 31.2532 71.6093 31.1556 71.1537C31.0137 70.7443 30.9682 70.3145 31.0218 69.8897C31.0755 69.4649 31.2273 69.0536 31.4682 68.6804C31.702 68.199 32.1006 67.7908 32.6106 67.5106C33.1205 67.2305 33.7174 67.0916 34.3213 67.1128C38.085 66.769 41.8891 67.2141 45.4113 68.4104H46.238L46.6513 69.2813C46.8829 69.6098 47.0037 69.9876 46.9999 70.3722C46.9962 70.7568 46.8681 71.1329 46.6301 71.458C46.3922 71.7831 46.0538 72.0442 45.6532 72.2121C45.2525 72.3799 44.8056 72.4477 44.3627 72.4078H44.1208L43.8486 72.3381C42.8557 71.9667 41.7795 71.7912 40.6982 71.8244C39.6169 71.8575 38.5578 72.0985 37.5979 72.5297L37.4164 72.6255L37.2148 72.669C36.3847 72.8743 35.5273 72.9855 34.6641 73V73ZM34.2205 70.187C34.8993 70.2474 35.5853 70.1882 36.2368 70.0128L36.7813 69.7777C36.0755 69.7777 35.3597 69.7777 34.6338 69.8735H34.3717L34.3112 69.978C34.2673 70.0426 34.2366 70.1134 34.2205 70.187V70.187Z" fill="#373435"/>
<path d="M37.0342 81.2294C37.4594 80.2565 38.1304 79.439 38.9668 78.8745C39.8033 78.3101 40.7699 78.0227 41.751 78.0467C41.937 76.7368 41.751 76 40.2252 76C38.0584 77.2083 36.2077 79.0046 34.848 81.2191C34.0673 83.1444 33.8182 85.2796 34.1316 87.3593C34.3018 88.7807 34.9694 90.0731 35.9923 90.9615C37.0515 91.6908 38.2864 92.0508 39.5349 91.9942C40.7835 91.9376 41.9873 91.467 42.9883 90.6443C46.3188 88.5055 49.6494 82.396 43.7977 80.0934C42.625 79.8417 41.4184 79.8506 40.2489 80.1195C39.0794 80.3884 37.9706 80.9119 36.9877 81.6592C36.8947 81.7104 36.8482 81.5057 36.9877 81.2396L37.0342 81.2294Z" fill="#373435"/>
<path d="M38.7437 92.9988C37.2712 93.0268 35.837 92.5472 34.7007 91.647C33.2986 90.5645 32.3891 89.0011 32.1639 87.2866C31.7602 85.0203 32.1068 82.6894 33.1548 80.6224C34.7405 78.3359 36.906 76.475 39.4473 75.2148L39.7941 75.0149H40.1707C40.6568 74.9698 41.1472 75.0274 41.6077 75.1837C42.0682 75.3399 42.4875 75.591 42.8363 75.9193C43.1359 76.3096 43.3426 76.7582 43.4419 77.2337C43.5412 77.7091 43.5307 78.1996 43.4111 78.6707C44.7567 78.866 46.0098 79.4465 47.0068 80.3364C48.0038 81.2264 48.6985 82.3844 49 83.6594C48.9428 85.2732 48.4483 86.8448 47.5655 88.2189C46.6827 89.593 45.442 90.7221 43.966 91.4946C42.392 92.426 40.5914 92.9446 38.7437 92.9988V92.9988ZM35.543 82.8501C35.1763 84.1917 35.0954 85.5906 35.3051 86.9629C35.4441 87.9003 35.9599 88.7479 36.742 89.324C38.6545 90.8568 41.7562 89.2193 42.3607 88.8765C43.3141 88.3871 44.1296 87.6826 44.7371 86.8236C45.3447 85.9646 45.7262 84.9768 45.8488 83.945C45.7596 82.9929 44.9669 82.3075 43.5003 81.8029C41.4387 81.504 39.3363 81.9741 37.624 83.1167L37.4951 83.1833L36.4348 83.6974L35.5628 82.8501H35.543Z" fill="#373435"/>
<path d="M39.165 88.2943C39.1849 88.6236 39.2525 88.9487 39.3659 89.2606C39.4149 89.4062 39.4824 89.5456 39.5667 89.676C39.2876 89.851 38.9674 89.9589 38.634 89.9904C38.3006 90.0218 37.9641 89.9759 37.6538 89.8566C35.5399 88.9536 35.6929 86.1541 36.7738 84.6369C37.34 83.8545 38.0928 83.2083 38.9715 82.7503C39.8503 82.2923 40.8306 82.0354 41.8336 82C42.9623 82.5509 43.3066 83.0656 42.7136 83.2011C42.3785 83.261 42.0557 83.3707 41.7571 83.5262C41.53 83.6223 41.3272 83.763 41.1623 83.939C40.9973 84.115 40.874 84.3221 40.8006 84.5466C41.2884 84.6821 41.5371 84.5466 41.9771 84.7272V86.1631C41.507 85.9402 40.9701 85.8764 40.4563 85.9825C39.4998 86.2624 39.1267 87.5538 39.1267 88.3395L39.165 88.2943Z" fill="#FEFEFE"/>
<path d="M43 126.438C45.6277 125.872 48.1175 124.788 50.3253 123.248C52.533 121.708 54.4148 119.742 55.8616 117.466C57.3084 115.19 58.2914 112.648 58.7538 109.987C59.2162 107.326 59.1487 104.599 58.5552 101.965C56.8946 101.93 55.2676 101.488 53.8154 100.678C53.7226 100.063 53.6762 99.4379 53.5742 98.8133C57.4143 100.678 62.8498 101.237 62.1449 95.3356C62.6643 95.1958 63.4713 95.1492 64 95C63.8145 99.1396 63.0724 99.5218 60.5402 101.284C61.2684 105.797 60.8886 110.421 59.4336 114.753C57.9787 119.085 55.4928 122.994 52.1921 126.14C51.9956 127.435 52.1101 128.759 52.5261 130C51.3118 128.725 49.8218 127.748 48.1714 127.145C46.5211 126.542 44.7547 126.329 43.0093 126.522L43 126.438Z" fill="#373435"/>
<path d="M55.1644 135L51.3049 130.888C50.1845 129.776 48.8124 128.929 47.2959 128.412C45.7794 127.896 44.1596 127.724 42.5631 127.912H41V125.307L42.0903 124.888C47.0582 123.906 51.4335 121.096 54.2871 117.054C57.1408 113.013 58.2481 108.058 57.374 103.242C55.8095 103.129 54.295 102.661 52.9548 101.874L52.3566 101.512L52.2505 100.851L52.1154 99.8744L51.9996 99L51.5558 96.2093L54.1899 97.4372C55.0747 97.9851 56.075 98.3362 57.1181 98.4649C58.1612 98.5936 59.2209 98.4968 60.2204 98.1814C60.8379 97.7628 61.0695 96.8512 60.9054 95.4744L60.7607 94.2093L62.0343 93.8744C62.4124 93.7838 62.7959 93.7154 63.1826 93.6698C63.4422 93.6404 63.6999 93.5969 63.9545 93.5395L66 93L65.9035 95.0372C65.7009 99.2791 64.736 100.349 62.4203 101.94C63.0232 106.461 62.5311 111.056 60.9826 115.364C59.4341 119.672 56.8712 123.575 53.4952 126.767C53.4972 127.56 53.6108 128.349 53.8329 129.112L55.1644 135ZM48.4103 125.623C49.1118 125.84 49.7903 126.12 50.4365 126.46C50.4656 126.144 50.5336 125.831 50.6391 125.53L50.7453 125.233L50.9672 125C51.7906 124.15 52.5528 123.298 53.254 122.442C51.7716 123.678 50.1463 124.746 48.4103 125.623Z" fill="#373435"/>
<path d="M192 189.5C191.784 186.115 191.386 183.143 191.291 179.749C191.075 171.974 185.388 170.277 185.077 178.052C184.904 182.128 185.077 185.971 185.077 189.814C187.384 190.142 189.729 190.036 192 189.5V189.5Z" fill="#8093D0"/>
<path d="M187.899 190C187.019 190 186.191 189.946 185.355 189.892L184.035 189.819V189.369V185.536C184.035 182.957 183.956 180.287 184.035 177.537C184.202 173.452 185.795 172 187.212 172C189.087 172 191.146 174.552 191.287 179.214C191.34 181.297 191.516 183.2 191.692 185.211C191.806 186.438 191.912 187.682 192 188.981V189.369L191.639 189.477C190.423 189.831 189.163 190.007 187.899 190V190ZM185.003 188.918H185.426C187.313 189.145 189.225 189.057 191.085 188.656C191.006 187.502 190.9 186.393 190.803 185.301C190.618 183.272 190.451 181.361 190.389 179.241C190.275 175.355 188.629 172.929 187.248 172.929C186.297 172.929 185.144 174.137 185.003 177.546C184.88 180.251 184.924 182.957 185.003 185.491C184.986 186.645 185.003 187.772 185.003 188.918Z" fill="#373435"/>
<path d="M185 190C184.221 186.013 183.93 181.968 184.131 177.93C184.732 170.598 176.625 162.871 176.078 176.482C175.879 180.459 176.062 184.444 176.625 188.396C179.363 189.115 182.164 189.652 185 190V190Z" fill="#8093D0"/>
<path d="M185 190L184.346 189.9C181.81 189.557 179.306 189.022 176.858 188.301L176.555 188.2V187.899C176.053 183.929 175.891 179.927 176.071 175.932C176.223 171.556 177.019 168.962 178.564 168.213C178.917 168.043 179.312 167.973 179.704 168.01C180.097 168.047 180.47 168.19 180.782 168.423C182.022 169.575 182.974 170.984 183.567 172.542C184.16 174.101 184.378 175.769 184.204 177.421C183.99 180.949 184.165 184.489 184.725 187.981L185 190ZM177.474 187.47C179.559 188.066 181.684 188.524 183.834 188.84L183.739 188.082C183.153 184.536 182.953 180.942 183.142 177.357C183.303 175.876 183.12 174.379 182.607 172.975C182.094 171.57 181.263 170.293 180.175 169.236C180.013 169.102 179.814 169.016 179.603 168.987C179.392 168.958 179.176 168.987 178.981 169.071C178.46 169.327 177.227 170.524 177.028 175.959C176.858 179.801 177.007 183.65 177.474 187.47V187.47Z" fill="#373435"/>
<path d="M177 189L176.016 173.344C175.308 161.657 170.616 163.02 170.239 172.644C170.055 177.193 170.423 179.68 170 184.239C172.208 185.74 174.507 188.696 177 188.936V189Z" fill="#8093D0"/>
<path d="M176.535 189C174.547 188.536 172.751 187.513 171.379 186.063C170.702 185.467 169.988 184.91 169.242 184.395L169 184.235V183.96C169.194 181.836 169.259 179.703 169.195 177.572V172.817C169.39 168.088 170.7 165.018 172.531 165C174.389 165 175.671 168.167 176.006 173.482L177 188.565H176.498L176.535 189ZM170.031 183.774C170.7 184.235 171.369 184.803 172.029 185.353C173.166 186.474 174.532 187.359 176.043 187.953L175.114 173.544C174.761 167.963 173.432 165.949 172.624 165.949C171.787 165.949 170.459 168.159 170.273 172.861C170.189 174.635 170.217 176.153 170.273 177.572C170.309 179.636 170.229 181.701 170.031 183.756V183.774Z" fill="#373435"/>
<path d="M94.9624 197.847C95.0878 194.059 94.8991 190.267 94.3983 186.512C92.4193 177.755 89.9223 176.68 87 183.152V197.695C89.6431 198.067 92.3209 198.099 94.9717 197.79L94.9624 197.847Z" fill="#8093D0"/>
<path d="M91.9141 198C90.5431 198 89.1721 197.858 87.8259 197.715L87 197.63V182.436C88.2636 179.312 89.4777 177.859 90.7001 178.011C92.2032 178.191 93.3925 180.689 94.4414 185.883L94.524 186.709C94.9309 190.227 95.0773 193.779 94.9617 197.326H94.5323L94.5901 197.763C93.7049 197.922 92.8101 198.001 91.9141 198V198ZM87.9002 196.709C89.974 197.014 92.0707 197.056 94.1523 196.832C94.2345 193.491 94.0854 190.147 93.7064 186.833L93.632 186.063C92.4262 180.109 91.2534 179.093 90.667 179.027C90.2128 179.027 89.2795 179.397 87.9002 182.778V196.709Z" fill="#373435"/>
<path d="M81.0535 195.36C81.0981 189.804 81.1427 186.125 81.1427 180.569C83.0505 172.396 85.003 173.221 86.9108 183.034C86.9554 188.306 87 191.738 87 197C84.9131 196.913 82.8676 196.354 81 195.36H81.0535Z" fill="#8093D0"/>
<path d="M87 197L86.2241 196.906C84.2322 196.8 82.2836 196.231 80.5086 195.237L79 194.294H80.3276V191.465C80.3276 187.598 80.3879 184.401 80.3879 180.045V179.922C81.319 175.829 82.2328 174 83.3621 174C84.2241 174 85.4397 174.99 86.8103 182.393V185.656C86.8103 189.286 86.8707 192.257 86.8707 196.396L87 197ZM81.25 194.529C82.7686 195.311 84.4105 195.766 86.0862 195.868C86.0862 192.04 86.0862 189.164 86.0259 185.703V182.544C84.6724 175.443 83.6379 175.056 83.4397 175.056C83.2414 175.056 82.5 175.169 81.3621 180.148C81.3621 184.477 81.3621 187.692 81.3017 191.521L81.25 194.529Z" fill="#373435"/>
<path d="M73.3021 183.856C73.625 179.315 74.6875 174.728 75 170.187C72.9167 161.197 70.6458 159.594 68.2604 165.46C68.1562 171.28 68.1042 177.146 68 182.966C69.5759 183.86 71.4737 184.191 73.3125 183.893L73.3021 183.856Z" fill="#8093D0"/>
<path d="M72.4536 185C71.1947 184.939 69.9673 184.609 68.866 184.035L68 183.668V183.331C68.055 180.301 68.0997 177.265 68.134 174.222C68.1684 171.18 68.2131 168.14 68.268 165.104V164.94C69.299 162.171 70.3918 160.926 71.6289 161.003C72.866 161.081 74.299 162.171 76 169.938V170.073C75.8454 172.457 75.4948 174.898 75.1546 177.223C74.8144 179.548 74.4742 181.951 74.3196 184.286V184.73L73.8866 184.817C73.417 184.924 72.9368 184.985 72.4536 185V185ZM69.1134 183.07L69.3196 183.157C70.5128 183.824 71.9086 184.102 73.2887 183.948C73.4536 181.681 73.7835 179.375 74.1134 177.146C74.4433 174.917 74.7835 172.457 74.9485 170.131C73.3299 162.769 71.9691 162.113 71.5876 162.084C71.3814 162.084 70.5567 162.248 69.3711 165.268C69.3162 168.266 69.2715 171.273 69.2371 174.29C69.2027 177.307 69.1615 180.208 69.1134 182.993V183.07Z" fill="#373435"/>
<path d="M163.021 182.085C163.353 177.562 162.9 173.794 163.021 169.366C163.143 164.001 168.086 165.555 168.296 170.477C168.506 175.4 168.749 177.927 169 182.841C166.997 183.205 164.938 182.942 163.07 182.085H163.021Z" fill="#8093D0"/>
<path d="M166.714 183.995C165.234 184.045 163.764 183.728 162.444 183.072H162.028V182.546C162.197 179.977 162.216 177.401 162.085 174.83C162.028 172.984 161.961 171.073 162.028 169.052C162.103 166.08 163.609 165.009 164.991 165C166.885 165 169.034 166.984 169.176 170.224C169.318 172.891 169.46 174.839 169.593 176.879C169.725 178.918 169.858 180.783 170 183.339V183.838L168.532 183.893C167.929 183.964 167.322 183.998 166.714 183.995ZM163.05 182.297C164.783 182.995 166.677 183.225 168.532 182.961H168.987C168.872 180.967 168.746 178.973 168.608 176.98C168.476 174.977 168.343 172.984 168.192 170.307C168.04 167.63 166.459 166.015 165.01 166.015C163.827 166.015 163.117 167.187 163.041 169.116C162.965 171.045 163.041 173.002 163.098 174.839C163.214 177.324 163.199 179.813 163.05 182.297V182.297Z" fill="#373435"/>
<path d="M162 183C161.869 179.269 161.913 174.785 161.782 171.054C162.096 165.926 158.943 158.355 157.706 166.775C157.313 169.894 157.077 173.034 157 176.182C158.436 178.656 160.113 180.943 162 183V183Z" fill="#B9C5EA"/>
<path d="M163 184L162.223 183.39C160.686 181.912 159.343 180.209 158.231 178.331C157.869 177.77 157.496 177.218 157.114 176.673L157 176.52V176.33C157.061 175.377 157.105 174.424 157.14 173.662C157.205 171.466 157.398 169.276 157.716 167.107C157.873 166.04 158.362 162.8 159.926 163.01C161.672 163.238 162.921 168.326 162.729 171.394C162.799 173.167 162.817 175.206 162.843 177.178C162.869 179.15 162.886 181.18 162.956 182.99L163 184ZM157.952 176.168C158.258 176.597 158.607 177.121 158.991 177.711C159.896 179.17 160.904 180.549 162.004 181.837C162.004 180.332 161.943 178.721 161.926 177.159C161.926 175.196 161.882 173.157 161.812 171.347C162.031 167.802 160.59 164.077 159.83 163.982C159.664 163.924 159.061 164.496 158.642 167.231C158.329 169.362 158.139 171.514 158.074 173.672L157.952 176.158V176.168Z" fill="#373435"/>
<path d="M119.524 116.82C121.964 105.054 124.356 93.2884 126.796 81.475C127.181 78.7138 127.894 76.2467 130.765 76H134.256C136.358 76 137.559 77.262 137.746 79.7955L137.033 85.0237C137.127 87.1587 138.422 88.3637 141.002 88.563C144.493 88.7053 148.04 88.9046 151.53 89.0469C156.794 89.3885 160.332 91.6658 159.975 98.2984L156.672 115.824C156.612 117.178 156.158 118.484 155.367 119.578C154.576 120.672 153.483 121.505 152.225 121.973C150.648 121.878 148.875 122.067 147.298 121.973C144.568 122.115 142.992 121.1 143.996 117.465C145 112.863 146.248 107.104 147.298 102.502C147.683 97.0269 145.675 96.7422 143.545 96.3532C141.725 96.1065 139.961 96.3532 138.14 96.1065C135.457 96.4955 134.453 99.1049 133.693 102.018C132.548 106.905 131.347 111.801 130.202 116.735C129.677 119.401 129.104 121.138 127.143 121.963H121.307C119.105 121.476 118.479 119.733 119.43 116.735L119.524 116.82Z" fill="#373435"/>
<path d="M148.251 122.877H147.229C146.526 122.997 145.804 122.941 145.126 122.715C144.448 122.488 143.835 122.097 143.34 121.577C142.925 120.914 142.675 120.16 142.612 119.378C142.548 118.597 142.673 117.811 142.975 117.089L143.546 114.451C144.418 110.447 145.421 105.978 146.245 102.25C146.536 97.8377 145.365 97.6195 143.434 97.2589C141.691 97.0217 140.013 97.2589 138.139 97.0312C136.265 97.3728 135.412 99.2609 134.644 102.174L133.088 108.711L131.158 116.871C130.52 119.603 130.005 121.748 127.512 122.801L127.325 122.877H121.083C120.553 122.789 120.048 122.587 119.602 122.284C119.155 121.981 118.778 121.585 118.497 121.121C118.169 120.375 118 119.567 118 118.749C118 117.932 118.169 117.124 118.497 116.377L118.806 115.429L122.555 97.0312L125.788 81.2716C126.05 79.374 126.603 75.3416 130.651 75H134.222C135.759 75 138.392 75.6072 138.701 79.744V79.8484L137.98 85.0858C138.045 86.1579 138.486 87.3819 141.016 87.5717L146.274 87.8089L151.493 88.0461C152.827 87.9197 154.172 88.1072 155.423 88.5938C156.674 89.0804 157.796 89.853 158.704 90.8514C159.611 91.8498 160.278 93.0468 160.653 94.3492C161.028 95.6516 161.1 97.0241 160.865 98.3596V98.4924L157.566 116.026C157.474 117.554 156.943 119.021 156.039 120.248C155.135 121.475 153.897 122.408 152.477 122.934L152.29 123H149.713C149.235 122.858 148.738 122.877 148.251 122.877V122.877ZM147.239 120.827H152.009C153.048 120.39 153.941 119.66 154.581 118.722C155.221 117.785 155.58 116.681 155.617 115.542L158.906 98.0465C159.197 92.7142 156.957 90.2852 151.409 89.9342L146.199 89.697L140.922 89.4503C136.799 89.1372 136.068 86.4995 136.002 84.953V84.8296L136.715 79.6207C136.499 77.1917 135.272 76.8786 134.231 76.8786H130.745C129.021 77.0304 128.215 78.2354 127.765 81.4803L124.513 97.3064C123.176 103.84 121.833 110.368 120.484 116.89L120.109 118.721L119.996 118.607C119.925 119.096 120 119.595 120.212 120.04C120.346 120.243 120.52 120.417 120.723 120.549C120.926 120.681 121.154 120.769 121.393 120.808H126.894C128.234 120.163 128.693 118.911 129.18 116.387L131.12 108.18L132.676 101.623C133.247 99.4602 134.288 95.4752 137.952 94.9818H138.224C139.929 95.2095 141.71 94.9818 143.621 95.2285H143.753C146.433 95.7219 148.616 96.6043 148.213 102.43V102.591C147.361 106.33 146.339 110.827 145.505 114.85L144.915 117.544C144.54 118.901 144.54 119.831 144.915 120.286C145.29 120.742 146.386 120.865 147.192 120.827H147.239Z" fill="#FEFEFE"/>
<path d="M74.322 129.782C76.7124 117.558 79.1497 105.335 81.5495 93.1576C81.5183 92.6043 81.6058 92.0508 81.8062 91.5332C82.0067 91.0156 82.3157 90.5455 82.7129 90.1537C83.1102 89.7618 83.5867 89.4571 84.1115 89.2594C84.6363 89.0616 85.1975 88.9753 85.7584 89.0061H107.769C109.866 88.945 111.94 89.4491 113.769 90.464C115.597 91.479 117.111 92.9665 118.146 94.7664C119.619 97.3981 120.238 100.413 119.918 103.402C119.447 108.536 117.141 113.337 113.412 116.948C110.359 119.491 106.618 121.098 102.651 121.571C98.9009 121.663 95.1513 121.71 91.4016 121.811C89.2456 121.626 87.0989 122.191 86.574 123.892C85.9084 126.203 85.4303 128.515 84.7554 130.78C84.5213 131.29 84.1781 131.745 83.7493 132.112C83.3205 132.479 82.8163 132.75 82.2713 132.907C80.1152 132.953 77.9217 132.953 75.7656 132.999C73.4596 133.036 73.9377 131.686 74.322 129.782V129.782ZM89.6768 108.83C90.2955 105.621 91.0642 101.988 91.636 99.1583C91.9415 98.3108 92.5161 97.5831 93.2743 97.0833C94.0326 96.5836 94.9342 96.3385 95.8449 96.3845C98.1142 96.2257 100.393 96.5149 102.547 97.2351C103.491 97.6108 104.342 98.1799 105.046 98.9046C105.749 99.6294 106.289 100.493 106.628 101.439C106.968 102.385 107.099 103.391 107.015 104.391C106.93 105.391 106.631 106.362 106.138 107.239C105.304 108.784 104.169 110.151 102.799 111.261C101.428 112.372 99.8487 113.205 98.151 113.712C96.592 114.113 94.979 114.273 93.3702 114.183C89.255 113.758 88.9175 112.676 89.6205 108.802L89.6768 108.83Z" fill="#373435"/>
<path d="M75.6464 133.972C75.247 134.012 74.8437 133.962 74.4667 133.826C74.0898 133.69 73.7491 133.471 73.4703 133.186C72.7574 132.344 73.0012 131.207 73.2545 130.005L73.3389 129.588C74.6584 122.855 75.9873 116.122 77.3255 109.389L80.5429 93.0926C80.5026 92.4547 80.5968 91.8156 80.8196 91.2154C81.0424 90.6153 81.3889 90.0672 81.8373 89.6058C82.347 89.0785 82.964 88.6634 83.6478 88.3877C84.3316 88.1119 85.0668 87.9818 85.8051 88.0057H107.783C110.064 87.937 112.321 88.4882 114.306 89.5991C116.292 90.7099 117.929 92.3376 119.039 94.3042C120.594 97.097 121.249 100.291 120.915 103.46C120.426 108.828 118.019 113.85 114.124 117.63L114.011 117.731C110.815 120.384 106.903 122.058 102.755 122.55C100.823 122.605 98.9373 122.633 97.0613 122.67L91.4332 122.79H91.3206C89.8104 122.661 87.9063 122.938 87.5686 124.178C87.2309 125.417 86.9589 126.434 86.6306 127.572C86.3023 128.71 86.049 129.884 85.6925 131.059C85.4279 131.719 85.0153 132.311 84.4858 132.791C83.9563 133.272 83.3235 133.628 82.6346 133.834L82.4564 133.908H82.2688L79.0327 133.954L75.759 134L75.6464 133.972ZM75.018 131.938C75.2502 131.999 75.4912 132.021 75.7309 132.002L79.0327 131.956H82.0531C83.0661 131.512 83.6477 131.031 83.8071 130.532C84.1354 129.394 84.4169 128.266 84.7452 127.128C85.0735 125.991 85.3267 124.816 85.6832 123.651C86.2929 121.671 88.4972 120.608 91.5082 120.876L97.08 120.756L102.708 120.635C106.443 120.167 109.961 118.645 112.839 116.252C116.374 112.813 118.563 108.253 119.02 103.377C119.325 100.562 118.742 97.7234 117.35 95.2475C116.378 93.6152 114.979 92.2702 113.299 91.3526C111.619 90.4351 109.721 89.9788 107.801 90.0312H85.7582C85.2992 90.0129 84.8415 90.0918 84.416 90.2625C83.9905 90.4332 83.607 90.6918 83.2912 91.0208C83.0197 91.2946 82.8119 91.6234 82.6823 91.9844C82.5527 92.3453 82.5044 92.7298 82.5408 93.1111V93.3885L79.2953 109.824L75.3088 130.023L75.215 130.458C75.0721 130.957 75.0088 131.475 75.0274 131.993L75.018 131.938ZM94.266 115.179H93.2717C92.48 115.198 91.6924 115.061 90.9548 114.777C90.2172 114.493 89.5444 114.066 88.9756 113.523C88.1408 112.423 88.2158 110.961 88.6473 108.64L88.985 106.79L89.0506 106.855C89.3789 105.199 89.7354 103.497 90.0637 101.897L90.7484 98.7251C91.1374 97.6974 91.8501 96.8197 92.7819 96.2205C93.7137 95.6213 94.8157 95.3322 95.9263 95.3955C98.295 95.2391 100.671 95.5536 102.914 96.3204C103.905 96.6707 104.81 97.221 105.573 97.9361C106.335 98.6511 106.938 99.5152 107.342 100.473C107.788 101.626 107.993 102.857 107.945 104.09C107.896 105.323 107.596 106.534 107.06 107.65L106.995 107.77C106.1 109.416 104.884 110.872 103.418 112.055C101.952 113.237 100.263 114.122 98.4495 114.661C97.0752 114.984 95.6692 115.157 94.2566 115.179H94.266ZM90.392 110.443C90.2452 111.064 90.3146 111.716 90.589 112.293C90.9173 112.719 91.8365 112.996 93.478 113.172C94.9811 113.245 96.4867 113.092 97.943 112.719C99.5019 112.248 100.951 111.479 102.208 110.455C103.465 109.431 104.505 108.173 105.269 106.753C105.68 105.89 105.913 104.955 105.953 104.002C105.994 103.049 105.841 102.098 105.503 101.204C105.199 100.497 104.75 99.8594 104.183 99.3324C103.616 98.8055 102.945 98.4002 102.211 98.1424C100.178 97.4666 98.0282 97.1993 95.8887 97.3563C95.1792 97.2987 94.4706 97.4768 93.8756 97.8623C93.2807 98.2478 92.8336 98.8185 92.6057 99.4835L92.0335 102.258C91.5833 104.441 91.0955 106.818 90.6734 109L90.392 110.443Z" fill="#FEFEFE"/>
<path d="M158.331 129.782C160.668 117.558 163.052 105.335 165.399 93.1576C165.368 92.6043 165.454 92.0508 165.65 91.5332C165.846 91.0156 166.148 90.5455 166.536 90.1537C166.925 89.7618 167.391 89.4571 167.904 89.2594C168.417 89.0616 168.966 88.9753 169.515 89.0061H191.039C193.09 88.945 195.118 89.4491 196.906 90.464C198.694 91.479 200.174 92.9665 201.187 94.7664C202.628 97.3981 203.233 100.413 202.919 103.402C202.459 108.536 200.204 113.337 196.557 116.948C193.572 119.491 189.914 121.098 186.034 121.571C182.367 121.663 178.7 121.71 175.033 121.811C172.925 121.626 170.825 122.191 170.312 123.892C169.661 126.203 169.194 128.515 168.534 130.78C168.305 131.29 167.969 131.745 167.55 132.112C167.131 132.479 166.637 132.75 166.104 132.907C163.996 132.953 161.851 132.953 159.742 132.999C157.487 133.036 157.918 131.686 158.331 129.782V129.782ZM173.346 108.83C173.951 105.621 174.703 101.988 175.262 99.1583C175.561 98.3108 176.123 97.5831 176.865 97.0833C177.606 96.5836 178.488 96.3385 179.378 96.3845C181.598 96.2257 183.826 96.5149 185.933 97.2351C186.855 97.6108 187.688 98.1799 188.376 98.9046C189.064 99.6294 189.592 100.493 189.924 101.439C190.255 102.385 190.384 103.391 190.302 104.391C190.219 105.391 189.927 106.362 189.444 107.239C188.629 108.784 187.519 110.151 186.179 111.261C184.838 112.372 183.294 113.205 181.633 113.712C180.109 114.113 178.532 114.273 176.958 114.183C172.934 113.758 172.604 112.676 173.291 108.802L173.346 108.83Z" fill="#373435"/>
<path d="M159.591 133.981C159.2 134.021 158.806 133.97 158.437 133.834C158.068 133.698 157.734 133.479 157.46 133.195C156.762 132.353 157.001 131.216 157.249 130.013L157.332 129.597C158.618 122.881 159.913 116.171 161.217 109.467L164.386 93.0936C164.346 92.4556 164.439 91.8163 164.657 91.2161C164.875 90.6158 165.214 90.0676 165.653 89.6061C166.152 89.0787 166.756 88.6635 167.426 88.3877C168.096 88.112 168.815 87.9818 169.538 88.0057H191.058C193.292 87.937 195.502 88.4883 197.446 89.5994C199.39 90.7104 200.993 92.3385 202.08 94.3054C203.603 97.099 204.243 100.294 203.917 103.464C203.437 108.832 201.081 113.854 197.267 117.636L197.157 117.737C194.027 120.39 190.197 122.065 186.135 122.557C184.243 122.612 182.397 122.64 180.56 122.677L175.049 122.797H174.939C173.451 122.668 171.596 122.945 171.265 124.185C170.934 125.425 170.668 126.442 170.347 127.571C170.025 128.699 169.777 129.893 169.428 131.058C169.169 131.718 168.765 132.311 168.247 132.791C167.728 133.272 167.108 133.628 166.434 133.833L166.259 133.907H166.076L162.907 133.954L159.702 134L159.591 133.981ZM158.976 131.946C159.204 132.006 159.439 132.027 159.674 132.011L162.907 131.965H165.865C166.856 131.521 167.426 131.04 167.582 130.54C167.904 129.402 168.188 128.265 168.501 127.136C168.813 126.007 169.07 124.833 169.419 123.667C170.016 121.687 172.174 120.624 175.123 120.892L180.578 120.772L186.089 120.651C189.746 120.183 193.191 118.66 196.009 116.266C199.47 112.827 201.614 108.266 202.062 103.39C202.361 100.574 201.79 97.7344 200.427 95.2582C199.474 93.6256 198.104 92.2803 196.46 91.3626C194.815 90.4449 192.956 89.9884 191.077 90.0409H169.492C169.043 90.0214 168.594 90.0997 168.178 90.2705C167.761 90.4413 167.385 90.7006 167.077 91.0307C166.811 91.3045 166.608 91.6334 166.481 91.9944C166.354 92.3555 166.306 92.74 166.342 93.1213V93.3989L163.155 109.911L159.27 130.041L159.178 130.475C159.038 130.975 158.976 131.493 158.994 132.011L158.976 131.946ZM177.823 115.184H176.849C176.074 115.203 175.303 115.067 174.581 114.782C173.859 114.498 173.2 114.072 172.643 113.528C171.825 112.427 171.899 110.966 172.321 108.644L172.652 106.794L172.716 106.859C173.038 105.193 173.387 103.482 173.708 101.872L174.379 98.718C174.756 97.6876 175.453 96.8071 176.366 96.2072C177.279 95.6073 178.36 95.3199 179.449 95.3877C181.768 95.2341 184.094 95.5486 186.291 96.3128C187.261 96.6632 188.148 97.2136 188.894 97.9288C189.641 98.644 190.231 99.5083 190.627 100.466C191.063 101.62 191.264 102.85 191.217 104.084C191.169 105.318 190.875 106.529 190.351 107.645L190.287 107.765C189.41 109.411 188.22 110.868 186.784 112.05C185.349 113.233 183.695 114.118 181.919 114.657C180.577 114.982 179.204 115.159 177.823 115.184V115.184ZM174.021 110.457C173.877 111.078 173.945 111.73 174.213 112.307C174.535 112.733 175.435 113.01 177.042 113.186C178.514 113.259 179.988 113.106 181.414 112.733C182.941 112.262 184.36 111.493 185.591 110.469C186.822 109.445 187.84 108.187 188.588 106.766C188.991 105.903 189.218 104.967 189.258 104.014C189.297 103.061 189.147 102.11 188.817 101.216C188.519 100.508 188.079 99.871 187.524 99.3439C186.969 98.8169 186.312 98.4116 185.593 98.1537C183.603 97.477 181.498 97.2096 179.403 97.3674C178.708 97.3114 178.015 97.4902 177.433 97.8756C176.851 98.2609 176.413 98.8308 176.188 99.495L175.628 102.27C175.187 104.463 174.709 106.849 174.296 109.032L174.021 110.457Z" fill="#FEFEFE"/>
<path d="M15.8672 187C14.7412 185.927 13.7885 184.689 13.0424 183.328C11.8803 181.229 11.3171 178.855 11.4134 176.462C8.9653 135.046 11.1215 98.8242 24.4263 69.2268C26.0552 65.6018 26.3095 64.5088 29.7086 62.8364C40.0931 59.0585 51.2324 57.7778 62.2124 59.0994C62.5514 58.1651 63.22 57.2308 62.9281 56.2966C52.9915 55.5073 42.9917 56.2958 33.3055 58.6322C26.7143 59.6786 20.2927 60.8277 18.7108 71.2168C5.41549 106.149 6.37591 139.231 7.76006 171.734C7.75011 174.079 8.10585 176.411 8.81464 178.648C11.404 186.841 13.9087 186.561 15.8766 186.991L15.8672 187Z" fill="#EBEFFF"/>
<path d="M67 181C67 172.363 66.3196 163.725 66.3196 155.05C65.985 150.1 64.9564 145.229 63.2668 140.592C61.4357 137.219 59.3395 134.01 57 131C64.1131 145.13 66.3274 161.398 63.2668 177.042C64.538 178.37 65.675 179.709 67 181V181Z" fill="#EBEFFF"/>
<path d="M67.8144 183L67.1209 182.743C64.5147 181.651 62.2793 179.861 60.674 177.581L60 176.752H60.6349C60.7814 173.6 60.7228 170.714 60.6349 167.914C60.5763 164.962 60.5079 161.914 60.6838 158.562V158L61.2601 158.086C62.8535 158.237 64.359 158.868 65.5671 159.892C66.7751 160.916 67.6256 162.282 68 163.8V163.952L67.873 173.048L67.746 182.286L67.8144 183ZM61.6508 177.152C62.9933 178.975 64.7523 180.469 66.7888 181.514C66.7888 178.505 66.8669 175.8 66.906 173.029C66.906 170.171 66.9841 167.248 67.033 164.01C66.7297 162.788 66.0639 161.68 65.1189 160.825C64.1739 159.969 62.9915 159.404 61.7192 159.2C61.5824 162.286 61.641 165.133 61.7192 167.895C61.7192 170.819 61.8169 173.838 61.6508 177.152Z" fill="#373435"/>
<path d="M80 194C78.262 193.234 76.7979 191.85 75.8333 190.063C75.5333 174.724 75.275 159.348 75 144L77.0917 146.327C77.5599 149.561 77.7746 152.834 77.7333 156.109L78.375 157.971C78.3632 170.004 78.9056 182.029 80 194V194Z" fill="#EBEFFF"/>
<path d="M80.9079 198L80.2632 197.784C77.5843 196.823 75.3668 194.854 74.0645 192.281L74 192.15V191.962C74 186.807 74.0921 181.474 74.0921 176.253V176.121L74.1566 176.009C75.5474 173.426 76.7447 171.764 78.0526 172.027C79.075 172.234 80.2263 173.445 81 180.807C81 186.281 80.9079 191.859 80.9079 197.315V198ZM74.9855 191.896C76.0726 193.981 77.8142 195.635 79.9316 196.591C79.9316 191.361 79.9776 186.037 80.0237 180.873C79.3053 174.027 78.2737 173.088 77.8684 173.004C77.4632 172.919 76.6711 173.445 75.1053 176.375C75.0592 181.539 75.0592 186.807 74.9855 191.906V191.896Z" fill="#373435"/>
<path d="M63.3523 141.388C63.3824 140.578 63.2631 139.769 63 139C63.4012 139.096 63.8024 139.143 64.1939 139.248L70.5252 144.272C71.4068 143.907 72.1086 143.222 72.4823 142.362C72.8827 142.356 73.2793 142.439 73.642 142.604C74.0048 142.77 74.3243 143.013 74.5764 143.317C74.6743 147.319 74.3807 151.263 74.4786 155.255C75.1357 155.802 75.5612 156.568 75.6724 157.404C78.2939 157.507 80.9075 157.752 83.5009 158.14C83.6477 158.77 83.8532 159.162 84 159.802C81.0735 159.481 78.1194 159.481 75.1929 159.802V161.607C77.4881 161.492 79.789 161.655 82.0429 162.094L82.2875 163.412C79.8508 163.127 77.3861 163.159 74.9581 163.507C75.3104 173.335 75.3104 183.172 74.9581 193C74.1556 191.147 72.6193 189.342 71.7679 187.489C73.2874 174.884 73.4874 162.16 72.3649 149.515C70.0432 146.164 66.9586 143.382 63.3523 141.388V141.388Z" fill="#373435"/>
<path d="M73.0423 193C72.6255 192.116 72.1378 191.266 71.5841 190.458C70.9844 189.569 70.4499 188.639 69.9847 187.674L69.806 187.294L69.8624 186.877C71.2885 174.865 71.484 162.742 70.4457 150.692C68.3211 147.782 65.5876 145.355 62.43 143.576L61.5833 143.038L61.7715 142.054C61.7749 141.698 61.7177 141.344 61.6021 141.006C61.5378 140.764 61.4813 140.519 61.4328 140.273L61 138L63.2768 138.557L63.766 138.659C63.9824 138.659 64.2082 138.742 64.4245 138.798L64.7444 138.881L70.2387 143.279C70.3996 143.132 70.5249 142.951 70.6056 142.75L70.9726 141.823H72.0169C72.6461 141.818 73.2676 141.959 73.8314 142.235C74.3952 142.51 74.8854 142.912 75.2626 143.409L75.5167 143.771V144.216C75.5637 146.192 75.5167 148.178 75.4696 150.089C75.4696 151.787 75.3849 153.541 75.4132 155.266C75.7381 155.633 76.0104 156.042 76.2223 156.482C77.784 156.547 79.3269 156.751 80.8322 156.936L82.7703 157.168L83.824 157.289L84.0592 158.31C84.1134 158.535 84.1793 158.758 84.2568 158.978C84.3508 159.265 84.4543 159.562 84.539 159.905L85 161.872L82.9584 161.715H82.5915L83.2783 165.426L81.2932 165.222C79.5159 165.02 77.7229 164.992 75.94 165.138C76.233 174.272 76.233 183.412 75.94 192.545L73.0423 193ZM72.9106 186.839L73.0894 187.173V185.142C73.0455 185.711 72.9859 186.277 72.9106 186.839ZM70.8879 146.387C71.4831 147.014 72.0332 147.68 72.5343 148.382V145.172C72.0628 145.67 71.5054 146.082 70.8879 146.387V146.387Z" fill="#373435"/>
<path d="M69 56C73.3769 55.4201 77.5936 53.959 81.3997 51.7035C88.9462 47.4413 97.363 44.9858 106 44.5267C102.427 42.8989 98.4066 42.561 94.6154 43.5698C85.3049 45.849 76.5762 50.0848 69 56V56Z" fill="#EBEFFF"/>
<path d="M116 51.093C136.416 44.9844 158.196 46.0057 178 54C158.532 45.1079 136.684 43.5756 116.242 49.6685C116.233 50.6569 116 50.1627 116 51.093V51.093Z" fill="#EBEFFF"/>
<defs>
<linearGradient id="paint0_linear" x1="62.7883" y1="30.791" x2="122.609" y2="230.388" gradientUnits="userSpaceOnUse">
<stop stop-color="#8A9FE0"/>
<stop offset="0.588" stop-color="#7182B8"/>
<stop offset="1" stop-color="#576490"/>
</linearGradient>
</defs>
</svg>
