<svg width="39" height="39" viewBox="0 0 39 39" fill="none" xmlns="http://www.w3.org/2000/svg">
<path d="M19.5 22.5151C21.1827 22.5151 22.5469 21.151 22.5469 19.4683C22.5469 17.7855 21.1827 16.4214 19.5 16.4214C17.8173 16.4214 16.4531 17.7855 16.4531 19.4683C16.4531 21.151 17.8173 22.5151 19.5 22.5151Z" fill="#19E8F5"/>
<path d="M19.5 26.4542C15.8378 26.5428 12.1848 26.0491 8.6775 24.9917C7.05732 24.4781 5.54621 23.669 4.22053 22.6054C3.71466 22.242 3.29339 21.7735 2.98562 21.232C2.67785 20.6905 2.49087 20.0889 2.4375 19.4683C2.4375 17.4537 4.65075 15.4793 8.35819 14.1875C11.9593 13.0427 15.7218 12.488 19.5 12.5446C23.2278 12.4925 26.9399 13.0373 30.4956 14.1582C32.0559 14.6557 33.5158 15.4256 34.8075 16.4324C35.3047 16.7788 35.7197 17.2303 36.023 17.755C36.3262 18.2796 36.5104 18.8645 36.5625 19.4683C36.5625 21.5621 34.0884 23.684 30.1031 25.0026C26.6637 26.0256 23.0878 26.5152 19.5 26.4542ZM19.5 14.0022C15.8853 13.9539 12.286 14.4813 8.83716 15.5646C5.42466 16.7554 3.89513 18.3836 3.89513 19.4646C3.89513 20.5956 5.53922 22.3738 9.14916 23.6084C12.5045 24.6149 15.9981 25.0834 19.5 24.9966C22.9325 25.0579 26.3542 24.5935 29.6461 23.6194C33.3938 22.3775 35.1 20.5969 35.1 19.4683C35.0385 19.081 34.8974 18.7107 34.6855 18.3807C34.4736 18.0507 34.1956 17.7683 33.8691 17.5512C32.7134 16.658 31.4093 15.9757 30.0166 15.5354C26.6151 14.4675 23.0648 13.9499 19.5 14.0022Z" fill="#19E8F5"/>
<path d="M12.5775 34.6648C12.009 34.6779 11.4471 34.5399 10.9493 34.2651C9.20401 33.2584 8.59951 30.3553 9.33198 26.498C10.1396 22.8065 11.5389 19.2699 13.4757 16.0253C15.2926 12.7701 17.6185 9.8266 20.3653 7.30633C21.5757 6.203 22.9721 5.32286 24.4896 4.70673C25.0384 4.4495 25.6372 4.31616 26.2434 4.31616C26.8495 4.31616 27.4483 4.4495 27.9971 4.70673C29.8119 5.75242 30.4127 8.9553 29.5657 13.0661C28.7331 16.5573 27.3702 19.9002 25.5243 22.9782C23.7714 26.195 21.5187 29.1128 18.8504 31.6228C17.5961 32.7694 16.1403 33.6739 14.5568 34.2907C13.9228 34.526 13.2536 34.6525 12.5775 34.6648ZM14.7384 16.7492C12.8908 19.8562 11.5497 23.2375 10.7652 26.7661C10.0913 30.3188 10.7384 32.4552 11.6793 32.9988C12.6543 33.5631 15.0211 33.0281 17.8949 30.5174C20.4421 28.1128 22.5923 25.3197 24.2653 22.2421C26.0337 19.2995 27.3411 16.1034 28.1422 12.7651C28.9392 8.89558 28.2506 6.52633 27.2732 5.96327C26.9069 5.8229 26.5154 5.76006 26.1235 5.77873C25.7316 5.7974 25.3479 5.89717 24.9966 6.07173C23.6458 6.62913 22.404 7.42044 21.3281 8.4093C18.7038 10.8234 16.482 13.6413 14.7469 16.7565L14.7384 16.7492Z" fill="#19E8F5"/>
<path d="M26.4188 34.6808C24.7674 34.6808 22.67 33.6814 20.486 31.8033C17.691 29.2601 15.3257 26.2816 13.4818 22.9832C11.5693 19.7832 10.181 16.2978 9.36974 12.6592C9.0179 11.0583 8.9527 9.4078 9.17718 7.78419C9.22908 7.18189 9.41248 6.59831 9.71445 6.07461C10.0164 5.5509 10.4296 5.09981 10.9249 4.75316C12.7371 3.70382 15.8121 4.78241 18.9503 7.56847C21.5592 10.033 23.7746 12.8831 25.5194 16.0193C27.4308 19.1446 28.8335 22.5537 29.6753 26.1191C30.0423 27.7786 30.0989 29.4918 29.8423 31.172C29.7812 31.7916 29.5869 32.3907 29.2726 32.9282C28.9583 33.4657 28.5315 33.9288 28.0215 34.2859C27.5317 34.5574 26.9786 34.6936 26.4188 34.6808ZM14.7432 22.2495C16.5121 25.4018 18.7715 28.2523 21.4366 30.6943C24.1776 33.0525 26.3518 33.5595 27.2866 33.0099C28.2616 32.4432 28.9806 30.13 28.2396 26.3872C27.4278 22.9831 26.0823 19.729 24.2531 16.7457C22.5881 13.744 20.4735 11.0149 17.9826 8.65316C15.0284 6.03041 12.6323 5.44419 11.6561 6.00969C11.3519 6.25695 11.1022 6.56462 10.9228 6.91326C10.7434 7.2619 10.6383 7.64394 10.6141 8.03525C10.4203 9.48323 10.4834 10.954 10.8006 12.3801C11.5809 15.8598 12.9123 19.1924 14.7444 22.252L14.7432 22.2495Z" fill="#19E8F5"/>
</svg>
