<svg width="40" height="40" viewBox="0 0 40 40" fill="none" xmlns="http://www.w3.org/2000/svg">
<path fill-rule="evenodd" clip-rule="evenodd" d="M20 2.5C23.4612 2.5 26.8446 3.52636 29.7225 5.44928C32.6003 7.37221 34.8434 10.1053 36.1679 13.303C37.4924 16.5007 37.839 20.0194 37.1637 23.4141C36.4885 26.8087 34.8218 29.9269 32.3744 32.3744C29.9269 34.8218 26.8087 36.4885 23.4141 37.1637C20.0194 37.839 16.5007 37.4924 13.303 36.1679C10.1053 34.8434 7.37221 32.6003 5.44928 29.7225C3.52636 26.8446 2.5 23.4612 2.5 20C2.5 15.3587 4.34374 10.9075 7.62563 7.62563C10.9075 4.34374 15.3587 2.5 20 2.5Z" fill="#CC6699"/>
<path d="M30.9775 9.99001C30.185 6.88251 25.0312 5.86501 20.1537 7.59251C17.0991 8.61895 14.2769 10.2378 11.8487 12.3563C9.1625 14.8688 8.73375 17.0563 8.91 17.97C9.535 21.195 13.9512 23.3025 15.7675 24.8663V24.875C15.2325 25.1388 11.3125 27.125 10.3925 29.15C9.425 31.29 10.5462 32.825 11.29 33.0313C12.4066 33.3001 13.5794 33.2126 14.6438 32.7811C15.7082 32.3495 16.6108 31.5956 17.225 30.625C17.7326 29.8387 18.0501 28.945 18.1525 28.0146C18.2549 27.0843 18.1394 26.1429 17.815 25.265C18.6898 25.0427 19.5992 24.9905 20.4937 25.1113C23.5637 25.47 24.1662 27.3863 24.0512 28.1888C23.9972 28.4744 23.8822 28.7451 23.7142 28.9823C23.5461 29.2196 23.329 29.4179 23.0775 29.5638C22.8625 29.6975 22.7962 29.7425 22.815 29.8425C22.8412 29.9863 22.94 29.9813 23.1237 29.95C23.5851 29.8047 23.9916 29.5231 24.2897 29.1422C24.5878 28.7613 24.7635 28.299 24.7937 27.8163C24.8675 25.9413 23.0662 23.8338 19.8762 23.8875C18.9497 23.8611 18.0252 23.9878 17.14 24.2625C17.0957 24.2119 17.0507 24.1619 17.005 24.1125C15.0325 22.0088 11.3875 20.52 11.5412 17.6913C11.5975 16.6625 11.955 13.955 18.5412 10.67C23.9412 7.97876 28.2637 8.72001 29.0112 10.3613C30.0787 12.7063 26.7012 17.0625 21.0937 17.6913C20.474 17.8171 19.8338 17.8017 19.2208 17.6464C18.6077 17.491 18.0375 17.1996 17.5525 16.7938C17.2575 16.4688 17.2137 16.455 17.1037 16.515C16.925 16.6138 17.0387 16.9013 17.1037 17.0713C17.3185 17.4582 17.6083 17.7984 17.9562 18.0719C18.3042 18.3454 18.7032 18.5466 19.13 18.6638C21.3347 19.1428 23.6343 18.9154 25.7025 18.0138C29.1037 16.7025 31.7562 13.0463 30.9775 9.99001ZM16.5225 25.8288C16.7708 26.6846 16.7581 27.5951 16.4862 28.4438C16.4571 28.5321 16.425 28.6196 16.39 28.7063C16.355 28.7929 16.3171 28.8763 16.2762 28.9563C16.0659 29.3867 15.7934 29.7838 15.4675 30.135C14.4512 31.2438 13.03 31.6638 12.4212 31.31C11.7637 30.9288 12.0925 29.365 13.2712 28.1188C14.177 27.2231 15.2212 26.4794 16.3637 25.9163L16.5225 25.8288Z" fill="white"/>
</svg>
