<svg width="132" height="132" viewBox="0 0 132 132" fill="none" xmlns="http://www.w3.org/2000/svg">
<path d="M132 66C132 102.461 102.461 132 66 132C29.5391 132 0 102.461 0 66C0 29.5391 29.5391 0 66 0C102.461 0 132 29.5391 132 66ZM94.8544 24.4076C88.1513 24.6386 82.3102 28.3346 77.946 33.4496C73.1115 39.0596 69.9105 45.7133 67.5881 52.4865C63.4631 49.1164 60.2828 44.7109 53.6456 42.7969C51.0251 41.996 48.2506 41.8358 45.5553 42.3296C42.86 42.8235 40.3226 43.957 38.1562 45.6349C35.9077 47.3929 34.2556 49.8012 33.4249 52.5319C31.449 58.9999 35.5328 64.7749 37.3808 66.8374L41.4397 71.1769C42.2606 72.0184 44.2984 74.25 43.2878 77.4304C42.2359 80.9119 38.0696 83.1435 33.7714 81.8359C31.8574 81.2543 29.106 79.8188 29.7289 77.814C29.9887 76.9766 30.5704 76.3785 30.888 75.669C31.1685 75.0626 31.317 74.5924 31.4036 74.3366C32.1791 71.7791 31.1231 68.4461 28.3717 67.6087C25.8142 66.8126 23.2196 67.4396 22.1842 70.7231C21.0457 74.4645 22.8277 81.2336 32.4142 84.1995C43.6507 87.6356 53.1218 81.5306 54.4748 73.5611C55.3163 68.5781 53.0558 64.8615 48.9308 60.1136L45.5606 56.3723C43.5188 54.3551 42.834 50.8736 44.9378 48.2089C46.7198 45.9484 49.2566 45.0079 53.4023 46.1258C59.4784 47.7799 62.1679 51.9667 66.6806 55.3616C64.812 61.4666 63.5828 67.5881 62.4896 73.0868L61.8255 77.1911C58.6039 94.0747 56.1536 103.36 49.7516 108.69C48.4605 109.593 46.6166 110.967 43.8652 111.07C42.4009 111.09 41.9059 110.109 41.9059 109.655C41.8605 108.644 42.7268 108.17 43.3043 107.72C44.1416 107.271 45.4534 106.47 45.3461 104.004C45.2595 101.083 42.834 98.5462 39.3278 98.6576C36.7084 98.7401 32.7113 101.211 32.8639 105.724C33.0124 110.406 37.3725 113.908 43.923 113.673C47.4499 113.561 55.2709 112.126 62.9805 102.952C71.9606 92.4454 74.4769 80.3921 76.3661 71.5646L78.474 59.9362C79.6496 60.0682 80.8995 60.1549 82.2731 60.1961C93.4436 60.4313 99.033 54.6356 99.1155 50.424C99.1815 47.8665 97.4449 45.3544 95.0359 45.4204C94.0006 45.4465 93.0032 45.8149 92.1994 46.4679C91.3957 47.1209 90.8309 48.0218 90.5932 49.0297C90.0776 51.3727 94.1573 53.5013 90.9769 55.5638C88.7205 57.0199 84.6615 58.0552 78.9649 57.2137L80.0002 51.4759C82.1287 40.6065 84.7234 27.2415 94.6316 26.9239C95.3617 26.8785 98.0017 26.9404 98.0471 28.6852C98.0677 29.2627 97.944 29.4401 97.2551 30.7477C96.6131 31.5996 96.2865 32.6478 96.3311 33.7136C96.4136 36.4856 98.5215 38.313 101.595 38.2016C105.674 38.0737 106.837 34.0766 106.792 32.0347C106.623 27.2209 101.549 24.2138 94.8461 24.4118L94.8544 24.4076Z" fill="#F8FAFF"/>
</svg>
