<svg width="512" height="64" viewBox="0 0 512 64" fill="none" xmlns="http://www.w3.org/2000/svg">
<path d="M52.867 0C38.769 0 29.957 7.049 26.433 21.147C31.72 14.097 37.888 11.454 44.937 13.217C48.958 14.222 51.833 17.14 55.015 20.37C60.198 25.63 66.197 31.72 79.3 31.72C93.398 31.72 102.209 24.671 105.733 10.573C100.447 17.623 94.279 20.266 87.23 18.503C83.208 17.498 80.334 14.58 77.152 11.35C71.968 6.09 65.97 0 52.867 0ZM26.433 31.72C12.336 31.72 3.524 38.769 0 52.867C5.287 45.817 11.454 43.174 18.503 44.937C22.525 45.942 25.4 48.86 28.581 52.089C33.765 57.351 39.764 63.439 52.867 63.439C66.964 63.439 75.775 56.391 79.3 42.293C74.013 49.343 67.845 51.986 60.797 50.223C56.775 49.218 53.9 46.3 50.718 43.07C45.535 37.81 39.536 31.72 26.433 31.72Z" fill="url(#paint0_linear)"/>
<path d="M158.592 26.7299H149.366V44.5879C149.366 49.3499 152.491 49.2759 158.592 48.9779V56.1949C146.241 57.6829 141.33 54.2609 141.33 44.5879V26.7309H134.485V18.9929H141.33V8.99888L149.366 6.61888V18.9929H158.592V26.7309V26.7299ZM193.762 18.9929H201.798V56.1949H193.762V50.8379C190.935 54.7819 186.545 57.1629 180.742 57.1629C170.622 57.1629 162.214 48.6059 162.214 37.5939C162.214 26.5079 170.622 18.0259 180.741 18.0259C186.545 18.0259 190.935 20.4059 193.762 24.2759V18.9929ZM182.006 49.4989C188.702 49.4989 193.762 44.5139 193.762 37.5939C193.762 30.6739 188.702 25.6889 182.006 25.6889C175.31 25.6889 170.25 30.6739 170.25 37.5939C170.25 44.5139 175.31 49.4989 182.006 49.4989ZM215.191 13.4119C212.363 13.4119 210.057 11.0319 210.057 8.27888C210.06 6.91807 210.601 5.61375 211.564 4.65152C212.526 3.68928 213.83 3.14753 215.191 3.14488C216.552 3.14753 217.856 3.68928 218.818 4.65152C219.781 5.61375 220.322 6.91807 220.325 8.27888C220.325 11.0319 218.018 13.4119 215.191 13.4119ZM211.173 56.1949V18.9929H219.208V56.1949H211.173ZM228.509 56.1949V1.87988H236.545V56.1949H228.509ZM288.703 18.9929H297.185L285.503 56.1949H277.616L269.878 31.1209L262.066 56.1949H254.179L242.497 18.9929H250.979L258.197 44.6629L266.009 18.9929H273.673L281.411 44.6629L288.703 18.9929ZM307.155 13.4129C304.328 13.4129 302.021 11.0319 302.021 8.27888C302.024 6.91807 302.565 5.61375 303.528 4.65152C304.49 3.68928 305.794 3.14753 307.155 3.14488C308.516 3.14753 309.82 3.68928 310.782 4.65152C311.745 5.61375 312.286 6.91807 312.289 8.27888C312.289 11.0319 309.982 13.4119 307.155 13.4119V13.4129ZM303.137 56.1949V18.9929H311.173V56.1949H303.137ZM340.042 18.0249C348.375 18.0249 354.328 23.6799 354.328 33.3529V56.1949H346.292V34.1709C346.292 28.5169 343.018 25.5409 337.959 25.5409C332.676 25.5409 328.509 28.6649 328.509 36.2549V56.1949H320.473V18.9929H328.509V23.7549C330.965 19.8849 334.982 18.0249 340.042 18.0249ZM392.423 4.11188H400.459V56.1949H392.423V50.8379C389.596 54.7819 385.206 57.1629 379.403 57.1629C369.283 57.1629 360.875 48.6059 360.875 37.5939C360.875 26.5079 369.283 18.0259 379.402 18.0259C385.206 18.0259 389.596 20.4059 392.423 24.2759V4.11188ZM380.667 49.4989C387.363 49.4989 392.423 44.5139 392.423 37.5939C392.423 30.6739 387.363 25.6889 380.667 25.6889C373.971 25.6889 368.911 30.6739 368.911 37.5939C368.911 44.5139 373.971 49.4989 380.667 49.4989ZM427.393 57.1629C416.158 57.1629 407.75 48.6059 407.75 37.5939C407.75 26.5079 416.158 18.0259 427.393 18.0259C434.685 18.0259 441.009 21.8199 443.986 27.6239L437.066 31.6419C435.429 28.1449 431.783 25.9119 427.319 25.9119C420.771 25.9119 415.786 30.8979 415.786 37.5939C415.786 44.2899 420.771 49.2759 427.319 49.2759C431.783 49.2759 435.429 46.9689 437.215 43.5459L444.135 47.4899C441.009 53.3679 434.685 57.1629 427.393 57.1629ZM457.378 29.2609C457.378 36.0309 477.393 31.9389 477.393 45.7039C477.393 53.1439 470.92 57.1629 462.884 57.1629C455.444 57.1629 450.087 53.8139 447.706 48.4569L454.626 44.4389C455.816 47.7879 458.792 49.7959 462.884 49.7959C466.456 49.7959 469.209 48.6059 469.209 45.6299C469.209 39.0079 449.194 42.7279 449.194 29.4099C449.194 22.4149 455.221 18.0259 462.81 18.0259C468.911 18.0259 473.97 20.8529 476.575 25.7639L469.805 29.5579C468.465 26.6569 465.861 25.3179 462.81 25.3179C459.908 25.3179 457.378 26.5819 457.378 29.2609ZM491.679 29.2609C491.679 36.0309 511.694 31.9389 511.694 45.7039C511.694 53.1439 505.221 57.1629 497.185 57.1629C489.745 57.1629 484.387 53.8139 482.006 48.4569L488.926 44.4389C490.116 47.7879 493.093 49.7959 497.185 49.7959C500.756 49.7959 503.509 48.6059 503.509 45.6299C503.509 39.0079 483.495 42.7279 483.495 29.4099C483.495 22.4149 489.521 18.0259 497.111 18.0259C503.211 18.0259 508.271 20.8529 510.876 25.7639L504.105 29.5579C502.765 26.6569 500.161 25.3179 497.111 25.3179C494.209 25.3179 491.679 26.5819 491.679 29.2609Z" fill="#2D3748"/>
<defs>
<linearGradient id="paint0_linear" x1="-2.93726" y1="20.3005" x2="88.3799" y2="72.953" gradientUnits="userSpaceOnUse">
<stop stop-color="#2298BD"/>
<stop offset="1" stop-color="#0ED7B5"/>
</linearGradient>
</defs>
</svg>
