<?xml version="1.0" standalone="no"?>
<!DOCTYPE svg PUBLIC "-//W3C//DTD SVG 20010904//EN"
 "http://www.w3.org/TR/2001/REC-SVG-20010904/DTD/svg10.dtd">
<svg version="1.0" xmlns="http://www.w3.org/2000/svg"
 width="1036.000000pt" height="1036.000000pt" viewBox="0 0 1036.000000 1036.000000"
 preserveAspectRatio="xMidYMid meet">
<metadata>
Created by potrace 1.11, written by Peter Selinger 2001-2013
</metadata>
<g transform="translate(0.000000,1036.000000) scale(0.100000,-0.100000)"
fill="#000000" stroke="none">
<path d="M6378 10295 c-2 -2 -16 -6 -33 -9 -16 -3 -43 -8 -60 -11 -89 -17
-304 -58 -330 -62 -16 -2 -43 -8 -60 -12 -16 -4 -38 -7 -47 -5 -10 1 -18 -2
-18 -7 0 -6 -6 -9 -12 -7 -11 2 -88 -9 -123 -18 -18 -4 -68 -13 -114 -21 -25
-4 -48 -7 -51 -8 -3 -1 -18 -4 -35 -8 -16 -4 -45 -9 -64 -12 -19 -3 -37 -7
-40 -9 -3 -2 -26 -7 -51 -10 -45 -6 -73 -11 -120 -21 -47 -10 -75 -15 -120
-21 -25 -3 -48 -8 -51 -10 -3 -2 -21 -6 -40 -9 -19 -3 -104 -19 -189 -35 -241
-46 -248 -47 -275 -49 -6 -1 -11 -11 -12 -23 0 -13 -3 -48 -7 -78 -3 -30 -8
-80 -11 -110 -6 -69 -15 -163 -20 -215 -2 -22 -7 -69 -10 -105 -4 -36 -8 -81
-10 -100 -2 -19 -7 -70 -10 -113 -4 -43 -8 -87 -10 -97 -2 -10 -6 -54 -10 -97
-3 -43 -8 -96 -10 -118 -3 -22 -7 -62 -9 -90 -9 -87 -18 -179 -21 -215 -2 -19
-6 -66 -10 -105 -4 -38 -8 -88 -10 -110 -2 -22 -7 -67 -10 -100 -7 -75 -14
-147 -20 -205 -2 -25 -7 -71 -10 -102 -3 -32 -8 -84 -11 -115 -3 -32 -7 -78
-9 -103 -3 -41 -7 -74 -20 -200 -12 -125 -19 -199 -19 -232 -1 -21 -3 -38 -6
-38 -3 0 -5 -17 -6 -38 0 -20 -4 -68 -8 -107 -4 -38 -9 -92 -11 -120 -2 -27
-7 -77 -10 -110 -4 -33 -8 -78 -10 -100 -2 -22 -6 -62 -9 -90 -13 -129 -19
-194 -22 -240 -1 -27 -3 -50 -4 -50 -1 0 -3 -16 -5 -35 -6 -55 -15 -159 -22
-230 -5 -59 -9 -102 -12 -122 -1 -5 -7 -8 -15 -8 -7 0 -31 35 -53 78 -22 42
-45 87 -51 100 -7 12 -16 31 -22 42 -5 10 -77 151 -159 312 -81 161 -190 376
-242 478 -51 102 -96 187 -101 188 -4 2 -8 8 -8 13 0 12 -40 102 -49 109 -6 5
-84 160 -86 170 0 3 -3 10 -7 15 -25 40 -116 225 -110 225 4 0 2 4 -4 8 -6 4
-33 52 -60 107 -27 55 -52 102 -55 105 -3 3 -11 21 -19 40 -8 19 -16 37 -19
40 -3 3 -35 64 -70 135 -35 72 -68 133 -73 136 -6 3 -9 9 -8 13 1 7 -44 98
-224 449 -47 92 -82 167 -78 167 4 0 2 4 -4 8 -6 4 -35 57 -65 117 -30 61 -56
112 -59 115 -3 3 -32 59 -64 125 -33 66 -63 122 -68 123 -4 2 -8 9 -8 16 0 40
-32 73 -65 66 -40 -8 -124 -22 -145 -25 -14 -2 -25 -4 -25 -5 0 -2 -19 -6 -65
-14 -19 -3 -48 -8 -65 -12 -16 -3 -39 -7 -50 -8 -12 -1 -26 -6 -33 -10 -7 -4
-12 -5 -12 -3 0 2 -21 0 -47 -5 -27 -5 -59 -11 -73 -14 -102 -19 -128 -24
-146 -28 -12 -2 -37 -7 -55 -10 -19 -3 -45 -8 -59 -12 -14 -3 -36 -7 -50 -9
-34 -4 -92 -15 -110 -20 -8 -2 -30 -7 -47 -10 -18 -3 -48 -7 -65 -10 -18 -3
-100 -19 -183 -35 -194 -37 -204 -39 -245 -46 -19 -3 -42 -7 -50 -9 -8 -3 -33
-7 -55 -11 -55 -8 -236 -43 -257 -50 -9 -3 -15 -10 -13 -17 3 -7 7 -24 10 -39
3 -16 7 -40 10 -55 19 -98 27 -141 30 -163 2 -14 6 -36 9 -50 8 -37 13 -60 21
-110 4 -25 9 -54 11 -65 7 -34 84 -439 89 -467 3 -16 7 -41 10 -58 3 -16 14
-76 26 -132 11 -57 22 -119 25 -138 3 -19 10 -55 16 -80 5 -25 11 -58 14 -75
2 -16 7 -43 11 -60 3 -16 8 -39 9 -50 1 -11 5 -30 7 -41 3 -12 8 -38 11 -58 3
-21 12 -70 20 -109 8 -40 17 -90 21 -112 12 -67 16 -88 26 -135 6 -25 12 -60
15 -77 2 -18 9 -52 14 -75 6 -24 13 -61 16 -83 7 -59 11 -77 18 -105 3 -14 8
-38 11 -55 3 -16 10 -52 15 -80 6 -27 12 -62 14 -76 3 -14 12 -64 21 -110 9
-46 19 -97 21 -114 3 -16 7 -41 11 -55 9 -35 10 -44 17 -87 3 -21 10 -63 16
-93 6 -30 13 -66 16 -80 2 -14 7 -36 10 -48 2 -13 7 -42 10 -64 7 -46 12 -73
14 -73 1 0 3 -9 5 -20 6 -34 19 -109 21 -125 1 -8 5 -28 9 -45 3 -16 8 -39 10
-50 8 -38 16 -81 41 -215 15 -74 27 -144 29 -155 1 -11 8 -47 15 -80 7 -33 14
-71 15 -85 2 -14 4 -25 5 -25 2 0 6 -23 14 -72 3 -21 8 -49 11 -63 3 -14 8
-38 11 -55 6 -38 37 -201 60 -320 9 -49 18 -97 19 -105 1 -8 5 -31 10 -50 4
-19 10 -48 12 -65 2 -16 5 -37 7 -45 2 -8 7 -33 11 -55 4 -22 9 -49 12 -60 11
-57 33 -174 38 -204 8 -44 11 -50 33 -46 9 2 17 4 17 5 0 1 9 3 20 5 25 3 54
9 220 41 72 14 146 27 165 30 19 2 80 13 135 25 55 11 111 22 125 24 28 4 73
12 110 20 14 3 42 7 64 10 21 3 41 7 45 9 5 4 48 12 106 21 11 2 36 6 55 10
50 10 82 16 105 18 11 2 26 6 33 10 6 5 16 6 21 2 9 -5 9 5 -4 65 -3 14 -8 40
-11 59 -3 18 -8 43 -10 55 -5 20 -7 32 -18 96 -3 14 -5 25 -6 25 -1 0 -4 14
-6 30 -3 17 -11 64 -19 105 -8 41 -16 89 -19 105 -2 17 -9 50 -14 75 -10 45
-21 102 -28 150 -2 14 -11 59 -19 100 -8 41 -17 89 -20 105 -7 40 -18 98 -21
110 -1 6 -7 39 -13 75 -7 36 -19 97 -26 137 -8 39 -18 88 -21 109 -3 20 -8 46
-10 58 -2 11 -7 37 -10 56 -6 34 -10 52 -18 88 -2 9 -7 37 -11 62 -4 25 -9 54
-12 65 -2 11 -6 29 -8 40 -2 11 -6 34 -10 50 -11 56 -25 130 -29 158 -3 15 -7
35 -10 45 -2 9 -7 39 -11 66 -3 27 -8 52 -10 55 -1 3 -6 22 -9 41 -9 52 -25
142 -30 170 -19 89 -83 388 -92 420 -2 8 -10 44 -18 80 -16 73 -134 537 -164
648 -11 39 -17 72 -15 72 3 0 1 6 -5 13 -6 7 -14 28 -17 47 -3 19 -10 52 -16
73 -10 39 -5 62 12 51 5 -3 119 -225 252 -492 133 -268 246 -490 252 -494 5
-4 7 -8 3 -8 -3 0 32 -75 78 -167 46 -92 84 -173 84 -179 0 -7 3 -14 8 -16 6
-3 233 -452 233 -463 0 -2 15 -32 35 -66 19 -34 37 -72 40 -85 3 -13 12 -28
20 -35 8 -6 14 -15 14 -20 0 -11 266 -550 280 -566 5 -7 10 -15 10 -19 0 -13
304 -619 314 -626 6 -4 8 -8 4 -8 -5 0 28 -70 71 -155 43 -85 76 -156 73 -159
-5 -6 59 0 98 9 30 7 76 15 110 20 14 2 25 4 25 5 0 2 31 8 84 15 25 3 48 8
52 10 4 3 22 7 40 10 19 2 45 7 59 9 49 11 75 16 105 21 17 3 41 7 55 10 25 5
56 11 110 20 16 3 59 11 95 19 69 14 79 11 71 -26 -3 -13 -8 -39 -11 -58 -2
-19 -7 -46 -9 -60 -22 -115 -35 -204 -31 -208 2 -2 0 -15 -5 -28 -5 -12 -11
-40 -14 -61 -6 -38 -12 -82 -20 -138 -3 -16 -7 -39 -9 -50 -3 -11 -8 -42 -11
-68 -4 -27 -9 -57 -11 -67 -2 -9 -6 -35 -9 -56 -4 -22 -13 -77 -21 -124 -7
-47 -16 -98 -18 -115 -5 -31 -13 -77 -22 -130 -8 -43 -11 -63 -20 -124 -3 -30
-9 -63 -11 -75 -5 -25 -53 -316 -60 -366 -3 -19 -7 -46 -10 -60 -2 -14 -7 -41
-9 -60 -3 -19 -7 -44 -10 -55 -5 -26 -18 -117 -18 -132 0 -7 -3 -13 -6 -13 -3
0 -7 -12 -7 -28 -2 -39 -20 -159 -29 -192 -2 -8 -7 -35 -10 -60 -8 -60 -11
-79 -30 -190 -9 -52 -18 -108 -20 -125 -2 -16 -4 -30 -5 -30 -2 0 -4 -15 -14
-89 -4 -27 -9 -59 -11 -70 -9 -41 -16 -81 -19 -111 -2 -16 -6 -43 -9 -60 -7
-32 -13 -66 -22 -130 -3 -22 -13 -78 -20 -125 -8 -47 -17 -101 -19 -120 -3
-19 -6 -35 -7 -35 -2 0 -4 -13 -13 -80 -2 -22 -7 -51 -10 -65 -6 -34 -17 -98
-22 -135 -2 -16 -6 -41 -9 -55 -22 -105 -36 -220 -26 -221 3 0 15 -2 26 -4 11
-2 36 -6 55 -9 19 -2 46 -7 60 -9 14 -3 59 -11 100 -17 105 -16 108 -17 175
-29 33 -6 78 -13 100 -16 22 -3 51 -7 65 -10 43 -9 75 -15 111 -19 42 -6 106
-16 139 -22 51 -9 86 -14 115 -18 30 -4 72 -11 130 -21 45 -9 207 -36 235 -40
31 -4 95 -15 135 -22 17 -3 39 -6 50 -8 11 -1 20 -3 20 -4 0 -1 16 -4 35 -6
19 -2 51 -6 70 -10 19 -3 49 -7 65 -10 17 -2 44 -6 60 -9 49 -10 98 -18 130
-23 17 -2 55 -8 86 -14 31 -5 76 -12 100 -15 24 -2 58 -7 74 -10 17 -2 55 -7
85 -9 30 -3 75 -7 100 -10 121 -13 540 -25 540 -15 0 3 35 6 78 7 42 1 93 4
112 7 19 2 64 7 100 10 36 3 76 9 90 12 14 3 39 7 55 10 75 12 147 27 230 49
143 38 185 51 260 79 39 15 75 28 80 30 22 6 72 28 119 52 28 13 53 24 58 24
4 0 30 13 58 30 28 16 55 30 61 30 5 0 22 8 37 19 15 10 68 44 117 76 112 72
272 192 285 214 5 9 10 12 10 8 0 -5 6 -2 14 5 78 74 186 181 206 204 99 114
224 274 215 274 -4 0 0 7 8 15 8 8 25 31 38 52 13 21 29 44 36 51 7 7 13 20
13 28 0 8 4 14 9 14 5 0 11 6 13 13 2 6 28 57 58 112 30 55 55 102 55 105 0 3
6 14 12 25 19 35 104 238 130 310 13 39 27 77 30 85 3 8 7 20 8 25 1 6 10 33
20 60 9 28 18 57 20 65 2 8 4 15 5 15 1 0 3 11 6 25 2 14 7 32 11 40 3 8 7 22
9 31 2 8 11 42 20 75 8 32 17 68 19 79 2 11 6 31 9 45 3 14 10 48 16 75 6 28
13 61 15 75 3 14 8 39 11 55 2 17 7 41 9 55 4 23 11 71 20 130 2 14 6 50 9 80
4 31 9 71 11 90 30 210 25 651 -9 857 -4 21 -8 52 -10 68 -2 17 -7 41 -10 55
-3 14 -8 39 -12 55 -3 17 -7 39 -9 50 -8 39 -27 110 -35 130 -4 11 -13 40 -20
65 -27 100 -184 458 -210 480 -4 3 -24 34 -45 70 -21 36 -42 67 -45 70 -3 3
-22 27 -41 55 -18 27 -38 55 -44 61 -5 6 -28 34 -50 62 -43 55 -271 281 -324
322 -18 14 -45 35 -59 48 -15 12 -52 39 -82 59 -30 21 -57 40 -60 43 -14 15
-119 79 -142 86 -10 4 -18 10 -18 15 0 5 -6 9 -14 9 -7 0 -19 7 -26 15 -7 9
-15 13 -18 10 -3 -3 -11 0 -17 5 -19 16 -179 94 -187 92 -5 -1 -8 3 -8 8 0 6
-8 10 -18 10 -10 0 -22 4 -28 8 -12 11 -167 72 -269 107 -44 15 -89 31 -100
35 -27 11 -273 78 -307 84 -15 3 -32 7 -37 10 -5 4 -24 8 -43 11 -33 5 -54 9
-93 19 -11 2 -30 5 -41 5 -24 1 -38 40 -48 131 -2 14 -6 32 -9 40 -3 8 -8 33
-11 55 -8 55 -19 112 -31 165 -3 14 -7 39 -10 55 -5 32 -20 114 -29 155 -2 14
-10 52 -15 85 -11 61 -17 90 -26 135 -4 23 -11 61 -22 120 -2 14 -6 36 -8 50
-1 14 -4 25 -5 25 -1 0 -3 11 -6 25 -3 24 -16 89 -19 100 0 3 -5 28 -10 55 -4
28 -9 55 -11 60 -1 6 -5 26 -8 45 -4 19 -9 46 -11 60 -3 14 -8 36 -10 50 -3
14 -8 40 -11 59 -3 18 -8 43 -10 55 -2 11 -7 36 -10 55 -5 32 -8 44 -19 94 -3
12 -7 37 -10 56 -2 18 -7 41 -9 50 -3 9 -7 32 -10 51 -8 50 -16 93 -21 110 -2
8 -7 38 -11 65 -3 28 -8 53 -10 56 -2 4 -6 24 -9 45 -4 22 -8 46 -10 54 -4 14
-12 55 -20 105 -2 11 -5 29 -8 40 -2 11 -8 43 -13 70 -10 65 -11 69 -14 75 -1
3 -3 14 -5 25 -1 11 -5 32 -8 48 -3 15 -11 53 -17 85 -5 31 -12 67 -14 78 -5
26 -17 93 -21 114 -8 53 -19 98 -27 114 -8 14 -7 17 3 11 7 -5 10 -4 6 2 -5 9
-20 77 -43 198 -4 22 -8 45 -10 50 -1 6 -5 26 -8 45 -4 19 -9 46 -11 60 -12
59 -15 77 -20 105 -3 17 -10 53 -15 80 -5 28 -12 62 -14 77 -3 15 -11 63 -20
105 -8 43 -18 96 -22 118 -4 22 -8 45 -10 50 -1 6 -5 26 -8 45 -8 41 -20 103
-21 110 -1 3 -5 29 -10 58 -4 28 -10 52 -14 53 -3 0 -14 2 -23 4 -9 2 -18 2
-20 0z m-914 -1801 c2 -22 5 -39 7 -39 1 0 3 -16 5 -35 1 -19 5 -52 8 -72 3
-21 8 -53 10 -70 3 -18 7 -52 10 -75 3 -24 8 -60 11 -80 3 -21 7 -49 9 -63 5
-29 23 -149 30 -200 14 -100 17 -118 22 -150 3 -19 8 -44 10 -56 2 -11 6 -40
8 -65 3 -24 5 -44 6 -44 1 0 3 -11 6 -25 2 -14 7 -38 10 -55 3 -16 5 -37 6
-45 0 -8 4 -37 9 -65 5 -27 12 -63 14 -80 3 -16 10 -52 15 -80 19 -101 30
-160 34 -196 1 -14 6 -31 10 -37 4 -7 4 -16 1 -22 -3 -5 -3 -10 2 -10 4 0 9
-12 10 -27 3 -38 11 -88 13 -88 2 0 4 -9 5 -20 2 -11 10 -60 20 -110 9 -49 19
-99 21 -110 2 -11 6 -31 9 -45 2 -14 7 -39 10 -56 l5 -32 -38 8 c-20 5 -57 11
-82 14 -25 3 -55 8 -66 10 -12 2 -39 7 -60 10 -22 4 -64 11 -94 16 -30 5 -73
12 -95 15 -91 15 -108 19 -123 28 -7 5 -10 12 -7 16 5 10 14 90 30 291 3 36 7
83 10 105 2 22 7 74 10 115 3 41 7 95 10 120 2 25 7 74 10 110 3 36 7 83 10
105 2 22 7 76 10 120 4 44 9 98 11 120 5 46 15 169 19 235 2 25 4 45 5 45 1 0
3 23 5 50 1 28 3 50 4 50 1 0 4 25 5 55 2 30 7 89 11 130 4 41 9 95 11 120 2
25 6 77 9 115 6 95 15 139 28 147 12 8 22 -23 31 -98z m1361 -3570 c17 -3 40
-8 53 -10 49 -8 68 -12 97 -18 39 -9 106 -27 125 -34 8 -3 21 -6 29 -8 25 -5
125 -46 186 -76 156 -78 281 -177 375 -298 19 -25 37 -47 40 -50 15 -14 113
-204 124 -240 5 -14 10 -29 12 -35 9 -26 43 -153 48 -180 2 -16 7 -41 10 -55
27 -116 27 -511 1 -710 -18 -139 -37 -251 -60 -357 -9 -37 -17 -77 -20 -88 -9
-46 -26 -111 -32 -125 -3 -8 -7 -20 -9 -27 -4 -22 -35 -118 -44 -138 -5 -11
-21 -50 -34 -87 -37 -101 -139 -298 -158 -306 -4 -2 -8 -8 -8 -14 0 -6 -13
-27 -30 -48 -16 -21 -30 -44 -30 -51 0 -7 -3 -9 -7 -6 -3 4 -14 -4 -23 -17
-44 -69 -219 -226 -249 -226 -6 0 -11 -4 -11 -8 0 -9 -94 -64 -105 -62 -3 0
-20 -7 -38 -16 -17 -9 -39 -20 -47 -24 -15 -7 -118 -38 -152 -46 -64 -14 -99
-20 -179 -30 -61 -7 -300 -7 -335 0 -16 3 -57 8 -91 11 -34 3 -72 8 -85 11
-13 2 -39 7 -58 9 -19 3 -57 10 -85 15 -27 5 -66 12 -85 14 -58 8 -115 18
-121 22 -5 3 -4 49 1 49 2 0 5 19 15 100 4 33 9 64 12 68 2 4 7 24 9 45 9 69
11 87 17 117 4 17 9 48 12 70 3 22 7 47 10 55 2 8 6 35 9 60 3 25 8 56 11 70
3 14 7 45 10 70 2 25 5 45 5 45 4 0 12 44 13 73 1 17 5 32 10 32 4 0 6 3 4 8
-3 4 2 45 9 92 8 47 17 99 20 115 2 17 7 46 10 65 2 19 6 42 9 50 2 8 7 38 10
65 4 28 8 57 10 65 3 8 7 33 10 55 3 22 8 51 10 65 3 14 7 43 11 65 3 22 7 51
10 65 3 14 7 39 10 55 2 17 7 46 11 65 3 19 7 42 8 50 3 26 16 111 21 133 2
12 6 40 9 62 3 22 7 47 10 55 2 8 7 35 10 60 3 25 8 59 11 75 3 17 7 41 9 55
2 14 6 34 9 46 2 12 7 45 11 75 3 30 8 61 10 69 2 8 7 31 10 50 3 19 7 46 10
60 2 14 7 45 10 70 4 25 10 63 15 85 5 22 11 63 15 90 12 83 18 125 29 180 8
39 19 117 19 133 0 6 3 12 6 12 3 0 6 12 7 28 2 86 25 184 44 188 8 1 29 5 45
8 17 3 44 7 60 10 17 3 55 10 85 17 30 6 71 13 90 16 19 3 37 7 40 10 5 5 83
-2 135 -13z"/>
</g>
</svg>
